<?xml version="1.0" encoding="utf-8" standalone="no"?>
<!DOCTYPE svg PUBLIC "-//W3C//DTD SVG 1.1//EN"
  "http://www.w3.org/Graphics/SVG/1.1/DTD/svg11.dtd">
<!-- Created with matplotlib (http://matplotlib.org/) -->
<svg height="345pt" version="1.1" viewBox="0 0 460 345" width="460pt" xmlns="http://www.w3.org/2000/svg" xmlns:xlink="http://www.w3.org/1999/xlink">
 <defs>
  <style type="text/css">
*{stroke-linecap:butt;stroke-linejoin:round;}
  </style>
 </defs>
 <g id="figure_1">
  <g id="patch_1">
   <path d="M 0 345.6 
L 460.8 345.6 
L 460.8 0 
L 0 0 
z
" style="fill:#ffffff;"/>
  </g>
  <g id="axes_1">
   <g id="patch_2">
    <path d="M 69.12 96.768 
L 414.72 96.768 
L 414.72 44.928 
L 69.12 44.928 
z
" style="fill:#ffffff;"/>
   </g>
   <g id="matplotlib.axis_1">
    <g id="xtick_1">
     <g id="line2d_1">
      <defs>
       <path d="M 0 0 
L 0 3.5 
" id="m2c66d65507" style="stroke:#000000;stroke-width:0.8;"/>
      </defs>
      <g>
       <use style="stroke:#000000;stroke-width:0.8;" x="81.92" xlink:href="#m2c66d65507" y="96.768"/>
      </g>
     </g>
    </g>
    <g id="xtick_2">
     <g id="line2d_2">
      <g>
       <use style="stroke:#000000;stroke-width:0.8;" x="135.84544" xlink:href="#m2c66d65507" y="96.768"/>
      </g>
     </g>
    </g>
    <g id="xtick_3">
     <g id="line2d_3">
      <g>
       <use style="stroke:#000000;stroke-width:0.8;" x="189.770879" xlink:href="#m2c66d65507" y="96.768"/>
      </g>
     </g>
    </g>
    <g id="xtick_4">
     <g id="line2d_4">
      <g>
       <use style="stroke:#000000;stroke-width:0.8;" x="243.696319" xlink:href="#m2c66d65507" y="96.768"/>
      </g>
     </g>
    </g>
    <g id="xtick_5">
     <g id="line2d_5">
      <g>
       <use style="stroke:#000000;stroke-width:0.8;" x="297.621758" xlink:href="#m2c66d65507" y="96.768"/>
      </g>
     </g>
    </g>
    <g id="xtick_6">
     <g id="line2d_6">
      <g>
       <use style="stroke:#000000;stroke-width:0.8;" x="351.547198" xlink:href="#m2c66d65507" y="96.768"/>
      </g>
     </g>
    </g>
    <g id="xtick_7">
     <g id="line2d_7">
      <g>
       <use style="stroke:#000000;stroke-width:0.8;" x="405.472637" xlink:href="#m2c66d65507" y="96.768"/>
      </g>
     </g>
    </g>
   </g>
   <g id="matplotlib.axis_2">
    <g id="ytick_1">
     <g id="line2d_8">
      <defs>
       <path d="M 0 0 
L -3.5 0 
" id="m28e67dc663" style="stroke:#000000;stroke-width:0.8;"/>
      </defs>
      <g>
       <use style="stroke:#000000;stroke-width:0.8;" x="69.12" xlink:href="#m28e67dc663" y="91.016688"/>
      </g>
     </g>
     <g id="text_1">
      <!-- −0.5 -->
      <defs>
       <path d="M 10.59375 35.5 
L 73.1875 35.5 
L 73.1875 27.203125 
L 10.59375 27.203125 
z
" id="DejaVuSans-2212"/>
       <path d="M 31.78125 66.40625 
Q 24.171875 66.40625 20.328125 58.90625 
Q 16.5 51.421875 16.5 36.375 
Q 16.5 21.390625 20.328125 13.890625 
Q 24.171875 6.390625 31.78125 6.390625 
Q 39.453125 6.390625 43.28125 13.890625 
Q 47.125 21.390625 47.125 36.375 
Q 47.125 51.421875 43.28125 58.90625 
Q 39.453125 66.40625 31.78125 66.40625 
z
M 31.78125 74.21875 
Q 44.046875 74.21875 50.515625 64.515625 
Q 56.984375 54.828125 56.984375 36.375 
Q 56.984375 17.96875 50.515625 8.265625 
Q 44.046875 -1.421875 31.78125 -1.421875 
Q 19.53125 -1.421875 13.0625 8.265625 
Q 6.59375 17.96875 6.59375 36.375 
Q 6.59375 54.828125 13.0625 64.515625 
Q 19.53125 74.21875 31.78125 74.21875 
z
" id="DejaVuSans-30"/>
       <path d="M 10.6875 12.40625 
L 21 12.40625 
L 21 0 
L 10.6875 0 
z
" id="DejaVuSans-2e"/>
       <path d="M 10.796875 72.90625 
L 49.515625 72.90625 
L 49.515625 64.59375 
L 19.828125 64.59375 
L 19.828125 46.734375 
Q 21.96875 47.46875 24.109375 47.828125 
Q 26.265625 48.1875 28.421875 48.1875 
Q 40.625 48.1875 47.75 41.5 
Q 54.890625 34.8125 54.890625 23.390625 
Q 54.890625 11.625 47.5625 5.09375 
Q 40.234375 -1.421875 26.90625 -1.421875 
Q 22.3125 -1.421875 17.546875 -0.640625 
Q 12.796875 0.140625 7.71875 1.703125 
L 7.71875 11.625 
Q 12.109375 9.234375 16.796875 8.0625 
Q 21.484375 6.890625 26.703125 6.890625 
Q 35.15625 6.890625 40.078125 11.328125 
Q 45.015625 15.765625 45.015625 23.390625 
Q 45.015625 31 40.078125 35.4375 
Q 35.15625 39.890625 26.703125 39.890625 
Q 22.75 39.890625 18.8125 39.015625 
Q 14.890625 38.140625 10.796875 36.28125 
z
" id="DejaVuSans-35"/>
      </defs>
      <g transform="translate(25.695781 96.715517)scale(0.15 -0.15)">
       <use xlink:href="#DejaVuSans-2212"/>
       <use x="83.789062" xlink:href="#DejaVuSans-30"/>
       <use x="147.412109" xlink:href="#DejaVuSans-2e"/>
       <use x="179.199219" xlink:href="#DejaVuSans-35"/>
      </g>
     </g>
    </g>
    <g id="ytick_2">
     <g id="line2d_9">
      <g>
       <use style="stroke:#000000;stroke-width:0.8;" x="69.12" xlink:href="#m28e67dc663" y="74.215825"/>
      </g>
     </g>
    </g>
    <g id="ytick_3">
     <g id="line2d_10">
      <g>
       <use style="stroke:#000000;stroke-width:0.8;" x="69.12" xlink:href="#m28e67dc663" y="57.414961"/>
      </g>
     </g>
     <g id="text_2">
      <!-- 0.5 -->
      <g transform="translate(38.265313 63.113789)scale(0.15 -0.15)">
       <use xlink:href="#DejaVuSans-30"/>
       <use x="63.623047" xlink:href="#DejaVuSans-2e"/>
       <use x="95.410156" xlink:href="#DejaVuSans-35"/>
      </g>
     </g>
    </g>
    <g id="text_3">
     <!-- Studentized -->
     <defs>
      <path d="M 53.515625 70.515625 
L 53.515625 60.890625 
Q 47.90625 63.578125 42.921875 64.890625 
Q 37.9375 66.21875 33.296875 66.21875 
Q 25.25 66.21875 20.875 63.09375 
Q 16.5 59.96875 16.5 54.203125 
Q 16.5 49.359375 19.40625 46.890625 
Q 22.3125 44.4375 30.421875 42.921875 
L 36.375 41.703125 
Q 47.40625 39.59375 52.65625 34.296875 
Q 57.90625 29 57.90625 20.125 
Q 57.90625 9.515625 50.796875 4.046875 
Q 43.703125 -1.421875 29.984375 -1.421875 
Q 24.8125 -1.421875 18.96875 -0.25 
Q 13.140625 0.921875 6.890625 3.21875 
L 6.890625 13.375 
Q 12.890625 10.015625 18.65625 8.296875 
Q 24.421875 6.59375 29.984375 6.59375 
Q 38.421875 6.59375 43.015625 9.90625 
Q 47.609375 13.234375 47.609375 19.390625 
Q 47.609375 24.75 44.3125 27.78125 
Q 41.015625 30.8125 33.5 32.328125 
L 27.484375 33.5 
Q 16.453125 35.6875 11.515625 40.375 
Q 6.59375 45.0625 6.59375 53.421875 
Q 6.59375 63.09375 13.40625 68.65625 
Q 20.21875 74.21875 32.171875 74.21875 
Q 37.3125 74.21875 42.625 73.28125 
Q 47.953125 72.359375 53.515625 70.515625 
z
" id="DejaVuSans-53"/>
      <path d="M 18.3125 70.21875 
L 18.3125 54.6875 
L 36.8125 54.6875 
L 36.8125 47.703125 
L 18.3125 47.703125 
L 18.3125 18.015625 
Q 18.3125 11.328125 20.140625 9.421875 
Q 21.96875 7.515625 27.59375 7.515625 
L 36.8125 7.515625 
L 36.8125 0 
L 27.59375 0 
Q 17.1875 0 13.234375 3.875 
Q 9.28125 7.765625 9.28125 18.015625 
L 9.28125 47.703125 
L 2.6875 47.703125 
L 2.6875 54.6875 
L 9.28125 54.6875 
L 9.28125 70.21875 
z
" id="DejaVuSans-74"/>
      <path d="M 8.5 21.578125 
L 8.5 54.6875 
L 17.484375 54.6875 
L 17.484375 21.921875 
Q 17.484375 14.15625 20.5 10.265625 
Q 23.53125 6.390625 29.59375 6.390625 
Q 36.859375 6.390625 41.078125 11.03125 
Q 45.3125 15.671875 45.3125 23.6875 
L 45.3125 54.6875 
L 54.296875 54.6875 
L 54.296875 0 
L 45.3125 0 
L 45.3125 8.40625 
Q 42.046875 3.421875 37.71875 1 
Q 33.40625 -1.421875 27.6875 -1.421875 
Q 18.265625 -1.421875 13.375 4.4375 
Q 8.5 10.296875 8.5 21.578125 
z
M 31.109375 56 
z
" id="DejaVuSans-75"/>
      <path d="M 45.40625 46.390625 
L 45.40625 75.984375 
L 54.390625 75.984375 
L 54.390625 0 
L 45.40625 0 
L 45.40625 8.203125 
Q 42.578125 3.328125 38.25 0.953125 
Q 33.9375 -1.421875 27.875 -1.421875 
Q 17.96875 -1.421875 11.734375 6.484375 
Q 5.515625 14.40625 5.515625 27.296875 
Q 5.515625 40.1875 11.734375 48.09375 
Q 17.96875 56 27.875 56 
Q 33.9375 56 38.25 53.625 
Q 42.578125 51.265625 45.40625 46.390625 
z
M 14.796875 27.296875 
Q 14.796875 17.390625 18.875 11.75 
Q 22.953125 6.109375 30.078125 6.109375 
Q 37.203125 6.109375 41.296875 11.75 
Q 45.40625 17.390625 45.40625 27.296875 
Q 45.40625 37.203125 41.296875 42.84375 
Q 37.203125 48.484375 30.078125 48.484375 
Q 22.953125 48.484375 18.875 42.84375 
Q 14.796875 37.203125 14.796875 27.296875 
z
" id="DejaVuSans-64"/>
      <path d="M 56.203125 29.59375 
L 56.203125 25.203125 
L 14.890625 25.203125 
Q 15.484375 15.921875 20.484375 11.0625 
Q 25.484375 6.203125 34.421875 6.203125 
Q 39.59375 6.203125 44.453125 7.46875 
Q 49.3125 8.734375 54.109375 11.28125 
L 54.109375 2.78125 
Q 49.265625 0.734375 44.1875 -0.34375 
Q 39.109375 -1.421875 33.890625 -1.421875 
Q 20.796875 -1.421875 13.15625 6.1875 
Q 5.515625 13.8125 5.515625 26.8125 
Q 5.515625 40.234375 12.765625 48.109375 
Q 20.015625 56 32.328125 56 
Q 43.359375 56 49.78125 48.890625 
Q 56.203125 41.796875 56.203125 29.59375 
z
M 47.21875 32.234375 
Q 47.125 39.59375 43.09375 43.984375 
Q 39.0625 48.390625 32.421875 48.390625 
Q 24.90625 48.390625 20.390625 44.140625 
Q 15.875 39.890625 15.1875 32.171875 
z
" id="DejaVuSans-65"/>
      <path d="M 54.890625 33.015625 
L 54.890625 0 
L 45.90625 0 
L 45.90625 32.71875 
Q 45.90625 40.484375 42.875 44.328125 
Q 39.84375 48.1875 33.796875 48.1875 
Q 26.515625 48.1875 22.3125 43.546875 
Q 18.109375 38.921875 18.109375 30.90625 
L 18.109375 0 
L 9.078125 0 
L 9.078125 54.6875 
L 18.109375 54.6875 
L 18.109375 46.1875 
Q 21.34375 51.125 25.703125 53.5625 
Q 30.078125 56 35.796875 56 
Q 45.21875 56 50.046875 50.171875 
Q 54.890625 44.34375 54.890625 33.015625 
z
" id="DejaVuSans-6e"/>
      <path d="M 9.421875 54.6875 
L 18.40625 54.6875 
L 18.40625 0 
L 9.421875 0 
z
M 9.421875 75.984375 
L 18.40625 75.984375 
L 18.40625 64.59375 
L 9.421875 64.59375 
z
" id="DejaVuSans-69"/>
      <path d="M 5.515625 54.6875 
L 48.1875 54.6875 
L 48.1875 46.484375 
L 14.40625 7.171875 
L 48.1875 7.171875 
L 48.1875 0 
L 4.296875 0 
L 4.296875 8.203125 
L 38.09375 47.515625 
L 5.515625 47.515625 
z
" id="DejaVuSans-7a"/>
     </defs>
     <g transform="translate(1.779531 115.768313)rotate(-90)scale(0.15 -0.15)">
      <use xlink:href="#DejaVuSans-53"/>
      <use x="63.476562" xlink:href="#DejaVuSans-74"/>
      <use x="102.685547" xlink:href="#DejaVuSans-75"/>
      <use x="166.064453" xlink:href="#DejaVuSans-64"/>
      <use x="229.541016" xlink:href="#DejaVuSans-65"/>
      <use x="291.064453" xlink:href="#DejaVuSans-6e"/>
      <use x="354.443359" xlink:href="#DejaVuSans-74"/>
      <use x="393.652344" xlink:href="#DejaVuSans-69"/>
      <use x="421.435547" xlink:href="#DejaVuSans-7a"/>
      <use x="473.925781" xlink:href="#DejaVuSans-65"/>
      <use x="535.449219" xlink:href="#DejaVuSans-64"/>
     </g>
     <!-- Residuals -->
     <defs>
      <path d="M 44.390625 34.1875 
Q 47.5625 33.109375 50.5625 29.59375 
Q 53.5625 26.078125 56.59375 19.921875 
L 66.609375 0 
L 56 0 
L 46.6875 18.703125 
Q 43.0625 26.03125 39.671875 28.421875 
Q 36.28125 30.8125 30.421875 30.8125 
L 19.671875 30.8125 
L 19.671875 0 
L 9.8125 0 
L 9.8125 72.90625 
L 32.078125 72.90625 
Q 44.578125 72.90625 50.734375 67.671875 
Q 56.890625 62.453125 56.890625 51.90625 
Q 56.890625 45.015625 53.6875 40.46875 
Q 50.484375 35.9375 44.390625 34.1875 
z
M 19.671875 64.796875 
L 19.671875 38.921875 
L 32.078125 38.921875 
Q 39.203125 38.921875 42.84375 42.21875 
Q 46.484375 45.515625 46.484375 51.90625 
Q 46.484375 58.296875 42.84375 61.546875 
Q 39.203125 64.796875 32.078125 64.796875 
z
" id="DejaVuSans-52"/>
      <path d="M 44.28125 53.078125 
L 44.28125 44.578125 
Q 40.484375 46.53125 36.375 47.5 
Q 32.28125 48.484375 27.875 48.484375 
Q 21.1875 48.484375 17.84375 46.4375 
Q 14.5 44.390625 14.5 40.28125 
Q 14.5 37.15625 16.890625 35.375 
Q 19.28125 33.59375 26.515625 31.984375 
L 29.59375 31.296875 
Q 39.15625 29.25 43.1875 25.515625 
Q 47.21875 21.78125 47.21875 15.09375 
Q 47.21875 7.46875 41.1875 3.015625 
Q 35.15625 -1.421875 24.609375 -1.421875 
Q 20.21875 -1.421875 15.453125 -0.5625 
Q 10.6875 0.296875 5.421875 2 
L 5.421875 11.28125 
Q 10.40625 8.6875 15.234375 7.390625 
Q 20.0625 6.109375 24.8125 6.109375 
Q 31.15625 6.109375 34.5625 8.28125 
Q 37.984375 10.453125 37.984375 14.40625 
Q 37.984375 18.0625 35.515625 20.015625 
Q 33.0625 21.96875 24.703125 23.78125 
L 21.578125 24.515625 
Q 13.234375 26.265625 9.515625 29.90625 
Q 5.8125 33.546875 5.8125 39.890625 
Q 5.8125 47.609375 11.28125 51.796875 
Q 16.75 56 26.8125 56 
Q 31.78125 56 36.171875 55.265625 
Q 40.578125 54.546875 44.28125 53.078125 
z
" id="DejaVuSans-73"/>
      <path d="M 34.28125 27.484375 
Q 23.390625 27.484375 19.1875 25 
Q 14.984375 22.515625 14.984375 16.5 
Q 14.984375 11.71875 18.140625 8.90625 
Q 21.296875 6.109375 26.703125 6.109375 
Q 34.1875 6.109375 38.703125 11.40625 
Q 43.21875 16.703125 43.21875 25.484375 
L 43.21875 27.484375 
z
M 52.203125 31.203125 
L 52.203125 0 
L 43.21875 0 
L 43.21875 8.296875 
Q 40.140625 3.328125 35.546875 0.953125 
Q 30.953125 -1.421875 24.3125 -1.421875 
Q 15.921875 -1.421875 10.953125 3.296875 
Q 6 8.015625 6 15.921875 
Q 6 25.140625 12.171875 29.828125 
Q 18.359375 34.515625 30.609375 34.515625 
L 43.21875 34.515625 
L 43.21875 35.40625 
Q 43.21875 41.609375 39.140625 45 
Q 35.0625 48.390625 27.6875 48.390625 
Q 23 48.390625 18.546875 47.265625 
Q 14.109375 46.140625 10.015625 43.890625 
L 10.015625 52.203125 
Q 14.9375 54.109375 19.578125 55.046875 
Q 24.21875 56 28.609375 56 
Q 40.484375 56 46.34375 49.84375 
Q 52.203125 43.703125 52.203125 31.203125 
z
" id="DejaVuSans-61"/>
      <path d="M 9.421875 75.984375 
L 18.40625 75.984375 
L 18.40625 0 
L 9.421875 0 
z
" id="DejaVuSans-6c"/>
     </defs>
     <g transform="translate(18.57625 106.761281)rotate(-90)scale(0.15 -0.15)">
      <use xlink:href="#DejaVuSans-52"/>
      <use x="69.419922" xlink:href="#DejaVuSans-65"/>
      <use x="130.943359" xlink:href="#DejaVuSans-73"/>
      <use x="183.042969" xlink:href="#DejaVuSans-69"/>
      <use x="210.826172" xlink:href="#DejaVuSans-64"/>
      <use x="274.302734" xlink:href="#DejaVuSans-75"/>
      <use x="337.681641" xlink:href="#DejaVuSans-61"/>
      <use x="398.960938" xlink:href="#DejaVuSans-6c"/>
      <use x="426.744141" xlink:href="#DejaVuSans-73"/>
     </g>
    </g>
   </g>
   <g id="LineCollection_1">
    <path clip-path="url(#p0901d588db)" d="M 288.978824 80.449727 
L 288.978824 13.246273 
" style="fill:none;stroke:#0000ff;stroke-width:1.5;"/>
    <path clip-path="url(#p0901d588db)" d="M 194.861176 107.632235 
L 194.861176 40.428781 
" style="fill:none;stroke:#0000ff;stroke-width:1.5;"/>
    <path clip-path="url(#p0901d588db)" d="M 383.096471 93.183398 
L 383.096471 25.979943 
" style="fill:none;stroke:#0000ff;stroke-width:1.5;"/>
    <path clip-path="url(#p0901d588db)" d="M 270.155294 119.549674 
L 270.155294 52.34622 
" style="fill:none;stroke:#0000ff;stroke-width:1.5;"/>
    <path clip-path="url(#p0901d588db)" d="M 232.508235 128.449727 
L 232.508235 61.246273 
" style="fill:none;stroke:#0000ff;stroke-width:1.5;"/>
    <path clip-path="url(#p0901d588db)" d="M 81.92 121.64085 
L 81.92 54.437396 
" style="fill:none;stroke:#0000ff;stroke-width:1.5;"/>
    <path clip-path="url(#p0901d588db)" d="M 251.331765 108.983367 
L 251.331765 41.779913 
" style="fill:none;stroke:#0000ff;stroke-width:1.5;"/>
    <path clip-path="url(#p0901d588db)" d="M 401.92 106.362044 
L 401.92 39.158589 
" style="fill:none;stroke:#0000ff;stroke-width:1.5;"/>
    <path clip-path="url(#p0901d588db)" d="M 307.802353 97.032524 
L 307.802353 29.82907 
" style="fill:none;stroke:#0000ff;stroke-width:1.5;"/>
    <path clip-path="url(#p0901d588db)" d="M 157.214118 89.695482 
L 157.214118 22.492027 
" style="fill:none;stroke:#0000ff;stroke-width:1.5;"/>
    <path clip-path="url(#p0901d588db)" d="M 100.743529 118.619114 
L 100.743529 51.415659 
" style="fill:none;stroke:#0000ff;stroke-width:1.5;"/>
    <path clip-path="url(#p0901d588db)" d="M 119.567059 115.567389 
L 119.567059 48.363935 
" style="fill:none;stroke:#0000ff;stroke-width:1.5;"/>
    <path clip-path="url(#p0901d588db)" d="M 345.449412 100.345226 
L 345.449412 33.141772 
" style="fill:none;stroke:#0000ff;stroke-width:1.5;"/>
    <path clip-path="url(#p0901d588db)" d="M 138.390588 115.145682 
L 138.390588 47.942227 
" style="fill:none;stroke:#0000ff;stroke-width:1.5;"/>
    <path clip-path="url(#p0901d588db)" d="M 176.037647 93.787725 
L 176.037647 26.584271 
" style="fill:none;stroke:#0000ff;stroke-width:1.5;"/>
    <path clip-path="url(#p0901d588db)" d="M 326.625882 99.032955 
L 326.625882 31.829501 
" style="fill:none;stroke:#0000ff;stroke-width:1.5;"/>
    <path clip-path="url(#p0901d588db)" d="M 364.272941 112.262009 
L 364.272941 45.058555 
" style="fill:none;stroke:#0000ff;stroke-width:1.5;"/>
    <path clip-path="url(#p0901d588db)" d="M 213.684706 100.878384 
L 213.684706 33.674929 
" style="fill:none;stroke:#0000ff;stroke-width:1.5;"/>
   </g>
   <g id="line2d_11">
    <path clip-path="url(#p0901d588db)" d="M 81.92 74.215825 
L 401.92 74.215825 
" style="fill:none;stroke:#ff0000;stroke-linecap:square;stroke-width:1.5;"/>
   </g>
   <g id="line2d_12">
    <defs>
     <path d="M -3 0 
L 3 0 
M 0 3 
L 0 -3 
" id="m4891977fb3" style="stroke:#0000ff;"/>
    </defs>
    <g clip-path="url(#p0901d588db)">
     <use style="fill:#0000ff;stroke:#0000ff;" x="288.978824" xlink:href="#m4891977fb3" y="46.848"/>
     <use style="fill:#0000ff;stroke:#0000ff;" x="194.861176" xlink:href="#m4891977fb3" y="74.030508"/>
     <use style="fill:#0000ff;stroke:#0000ff;" x="383.096471" xlink:href="#m4891977fb3" y="59.581671"/>
     <use style="fill:#0000ff;stroke:#0000ff;" x="270.155294" xlink:href="#m4891977fb3" y="85.947947"/>
     <use style="fill:#0000ff;stroke:#0000ff;" x="232.508235" xlink:href="#m4891977fb3" y="94.848"/>
     <use style="fill:#0000ff;stroke:#0000ff;" x="81.92" xlink:href="#m4891977fb3" y="88.039123"/>
     <use style="fill:#0000ff;stroke:#0000ff;" x="251.331765" xlink:href="#m4891977fb3" y="75.38164"/>
     <use style="fill:#0000ff;stroke:#0000ff;" x="401.92" xlink:href="#m4891977fb3" y="72.760317"/>
     <use style="fill:#0000ff;stroke:#0000ff;" x="307.802353" xlink:href="#m4891977fb3" y="63.430797"/>
     <use style="fill:#0000ff;stroke:#0000ff;" x="157.214118" xlink:href="#m4891977fb3" y="56.093755"/>
     <use style="fill:#0000ff;stroke:#0000ff;" x="100.743529" xlink:href="#m4891977fb3" y="85.017386"/>
     <use style="fill:#0000ff;stroke:#0000ff;" x="119.567059" xlink:href="#m4891977fb3" y="81.965662"/>
     <use style="fill:#0000ff;stroke:#0000ff;" x="345.449412" xlink:href="#m4891977fb3" y="66.743499"/>
     <use style="fill:#0000ff;stroke:#0000ff;" x="138.390588" xlink:href="#m4891977fb3" y="81.543955"/>
     <use style="fill:#0000ff;stroke:#0000ff;" x="176.037647" xlink:href="#m4891977fb3" y="60.185998"/>
     <use style="fill:#0000ff;stroke:#0000ff;" x="326.625882" xlink:href="#m4891977fb3" y="65.431228"/>
     <use style="fill:#0000ff;stroke:#0000ff;" x="364.272941" xlink:href="#m4891977fb3" y="78.660282"/>
     <use style="fill:#0000ff;stroke:#0000ff;" x="213.684706" xlink:href="#m4891977fb3" y="67.276656"/>
    </g>
   </g>
   <g id="patch_3">
    <path d="M 69.12 96.768 
L 69.12 44.928 
" style="fill:none;stroke:#000000;stroke-linecap:square;stroke-linejoin:miter;stroke-width:0.8;"/>
   </g>
   <g id="patch_4">
    <path d="M 414.72 96.768 
L 414.72 44.928 
" style="fill:none;stroke:#000000;stroke-linecap:square;stroke-linejoin:miter;stroke-width:0.8;"/>
   </g>
   <g id="patch_5">
    <path d="M 69.12 96.768 
L 414.72 96.768 
" style="fill:none;stroke:#000000;stroke-linecap:square;stroke-linejoin:miter;stroke-width:0.8;"/>
   </g>
   <g id="patch_6">
    <path d="M 69.12 44.928 
L 414.72 44.928 
" style="fill:none;stroke:#000000;stroke-linecap:square;stroke-linejoin:miter;stroke-width:0.8;"/>
   </g>
   <g id="text_4">
    <!-- Function (0/0): y = a*sin(w*x-b)+c -->
    <defs>
     <path d="M 9.8125 72.90625 
L 51.703125 72.90625 
L 51.703125 64.59375 
L 19.671875 64.59375 
L 19.671875 43.109375 
L 48.578125 43.109375 
L 48.578125 34.8125 
L 19.671875 34.8125 
L 19.671875 0 
L 9.8125 0 
z
" id="DejaVuSans-46"/>
     <path d="M 48.78125 52.59375 
L 48.78125 44.1875 
Q 44.96875 46.296875 41.140625 47.34375 
Q 37.3125 48.390625 33.40625 48.390625 
Q 24.65625 48.390625 19.8125 42.84375 
Q 14.984375 37.3125 14.984375 27.296875 
Q 14.984375 17.28125 19.8125 11.734375 
Q 24.65625 6.203125 33.40625 6.203125 
Q 37.3125 6.203125 41.140625 7.25 
Q 44.96875 8.296875 48.78125 10.40625 
L 48.78125 2.09375 
Q 45.015625 0.34375 40.984375 -0.53125 
Q 36.96875 -1.421875 32.421875 -1.421875 
Q 20.0625 -1.421875 12.78125 6.34375 
Q 5.515625 14.109375 5.515625 27.296875 
Q 5.515625 40.671875 12.859375 48.328125 
Q 20.21875 56 33.015625 56 
Q 37.15625 56 41.109375 55.140625 
Q 45.0625 54.296875 48.78125 52.59375 
z
" id="DejaVuSans-63"/>
     <path d="M 30.609375 48.390625 
Q 23.390625 48.390625 19.1875 42.75 
Q 14.984375 37.109375 14.984375 27.296875 
Q 14.984375 17.484375 19.15625 11.84375 
Q 23.34375 6.203125 30.609375 6.203125 
Q 37.796875 6.203125 41.984375 11.859375 
Q 46.1875 17.53125 46.1875 27.296875 
Q 46.1875 37.015625 41.984375 42.703125 
Q 37.796875 48.390625 30.609375 48.390625 
z
M 30.609375 56 
Q 42.328125 56 49.015625 48.375 
Q 55.71875 40.765625 55.71875 27.296875 
Q 55.71875 13.875 49.015625 6.21875 
Q 42.328125 -1.421875 30.609375 -1.421875 
Q 18.84375 -1.421875 12.171875 6.21875 
Q 5.515625 13.875 5.515625 27.296875 
Q 5.515625 40.765625 12.171875 48.375 
Q 18.84375 56 30.609375 56 
z
" id="DejaVuSans-6f"/>
     <path id="DejaVuSans-20"/>
     <path d="M 31 75.875 
Q 24.46875 64.65625 21.28125 53.65625 
Q 18.109375 42.671875 18.109375 31.390625 
Q 18.109375 20.125 21.3125 9.0625 
Q 24.515625 -2 31 -13.1875 
L 23.1875 -13.1875 
Q 15.875 -1.703125 12.234375 9.375 
Q 8.59375 20.453125 8.59375 31.390625 
Q 8.59375 42.28125 12.203125 53.3125 
Q 15.828125 64.359375 23.1875 75.875 
z
" id="DejaVuSans-28"/>
     <path d="M 25.390625 72.90625 
L 33.6875 72.90625 
L 8.296875 -9.28125 
L 0 -9.28125 
z
" id="DejaVuSans-2f"/>
     <path d="M 8.015625 75.875 
L 15.828125 75.875 
Q 23.140625 64.359375 26.78125 53.3125 
Q 30.421875 42.28125 30.421875 31.390625 
Q 30.421875 20.453125 26.78125 9.375 
Q 23.140625 -1.703125 15.828125 -13.1875 
L 8.015625 -13.1875 
Q 14.5 -2 17.703125 9.0625 
Q 20.90625 20.125 20.90625 31.390625 
Q 20.90625 42.671875 17.703125 53.65625 
Q 14.5 64.65625 8.015625 75.875 
z
" id="DejaVuSans-29"/>
     <path d="M 11.71875 12.40625 
L 22.015625 12.40625 
L 22.015625 0 
L 11.71875 0 
z
M 11.71875 51.703125 
L 22.015625 51.703125 
L 22.015625 39.3125 
L 11.71875 39.3125 
z
" id="DejaVuSans-3a"/>
     <path d="M 32.171875 -5.078125 
Q 28.375 -14.84375 24.75 -17.8125 
Q 21.140625 -20.796875 15.09375 -20.796875 
L 7.90625 -20.796875 
L 7.90625 -13.28125 
L 13.1875 -13.28125 
Q 16.890625 -13.28125 18.9375 -11.515625 
Q 21 -9.765625 23.484375 -3.21875 
L 25.09375 0.875 
L 2.984375 54.6875 
L 12.5 54.6875 
L 29.59375 11.921875 
L 46.6875 54.6875 
L 56.203125 54.6875 
z
" id="DejaVuSans-79"/>
     <path d="M 10.59375 45.40625 
L 73.1875 45.40625 
L 73.1875 37.203125 
L 10.59375 37.203125 
z
M 10.59375 25.484375 
L 73.1875 25.484375 
L 73.1875 17.1875 
L 10.59375 17.1875 
z
" id="DejaVuSans-3d"/>
     <path d="M 47.015625 60.890625 
L 29.5 51.421875 
L 47.015625 41.890625 
L 44.1875 37.109375 
L 27.78125 47.015625 
L 27.78125 28.609375 
L 22.21875 28.609375 
L 22.21875 47.015625 
L 5.8125 37.109375 
L 2.984375 41.890625 
L 20.515625 51.421875 
L 2.984375 60.890625 
L 5.8125 65.71875 
L 22.21875 55.8125 
L 22.21875 74.21875 
L 27.78125 74.21875 
L 27.78125 55.8125 
L 44.1875 65.71875 
z
" id="DejaVuSans-2a"/>
     <path d="M 4.203125 54.6875 
L 13.1875 54.6875 
L 24.421875 12.015625 
L 35.59375 54.6875 
L 46.1875 54.6875 
L 57.421875 12.015625 
L 68.609375 54.6875 
L 77.59375 54.6875 
L 63.28125 0 
L 52.6875 0 
L 40.921875 44.828125 
L 29.109375 0 
L 18.5 0 
z
" id="DejaVuSans-77"/>
     <path d="M 54.890625 54.6875 
L 35.109375 28.078125 
L 55.90625 0 
L 45.3125 0 
L 29.390625 21.484375 
L 13.484375 0 
L 2.875 0 
L 24.125 28.609375 
L 4.6875 54.6875 
L 15.28125 54.6875 
L 29.78125 35.203125 
L 44.28125 54.6875 
z
" id="DejaVuSans-78"/>
     <path d="M 4.890625 31.390625 
L 31.203125 31.390625 
L 31.203125 23.390625 
L 4.890625 23.390625 
z
" id="DejaVuSans-2d"/>
     <path d="M 48.6875 27.296875 
Q 48.6875 37.203125 44.609375 42.84375 
Q 40.53125 48.484375 33.40625 48.484375 
Q 26.265625 48.484375 22.1875 42.84375 
Q 18.109375 37.203125 18.109375 27.296875 
Q 18.109375 17.390625 22.1875 11.75 
Q 26.265625 6.109375 33.40625 6.109375 
Q 40.53125 6.109375 44.609375 11.75 
Q 48.6875 17.390625 48.6875 27.296875 
z
M 18.109375 46.390625 
Q 20.953125 51.265625 25.265625 53.625 
Q 29.59375 56 35.59375 56 
Q 45.5625 56 51.78125 48.09375 
Q 58.015625 40.1875 58.015625 27.296875 
Q 58.015625 14.40625 51.78125 6.484375 
Q 45.5625 -1.421875 35.59375 -1.421875 
Q 29.59375 -1.421875 25.265625 0.953125 
Q 20.953125 3.328125 18.109375 8.203125 
L 18.109375 0 
L 9.078125 0 
L 9.078125 75.984375 
L 18.109375 75.984375 
z
" id="DejaVuSans-62"/>
     <path d="M 46 62.703125 
L 46 35.5 
L 73.1875 35.5 
L 73.1875 27.203125 
L 46 27.203125 
L 46 0 
L 37.796875 0 
L 37.796875 27.203125 
L 10.59375 27.203125 
L 10.59375 35.5 
L 37.796875 35.5 
L 37.796875 62.703125 
z
" id="DejaVuSans-2b"/>
    </defs>
    <g transform="translate(69.12 16.532375)scale(0.1 -0.1)">
     <use xlink:href="#DejaVuSans-46"/>
     <use x="57.441406" xlink:href="#DejaVuSans-75"/>
     <use x="120.820312" xlink:href="#DejaVuSans-6e"/>
     <use x="184.199219" xlink:href="#DejaVuSans-63"/>
     <use x="239.179688" xlink:href="#DejaVuSans-74"/>
     <use x="278.388672" xlink:href="#DejaVuSans-69"/>
     <use x="306.171875" xlink:href="#DejaVuSans-6f"/>
     <use x="367.353516" xlink:href="#DejaVuSans-6e"/>
     <use x="430.732422" xlink:href="#DejaVuSans-20"/>
     <use x="462.519531" xlink:href="#DejaVuSans-28"/>
     <use x="501.533203" xlink:href="#DejaVuSans-30"/>
     <use x="565.15625" xlink:href="#DejaVuSans-2f"/>
     <use x="598.847656" xlink:href="#DejaVuSans-30"/>
     <use x="662.470703" xlink:href="#DejaVuSans-29"/>
     <use x="701.484375" xlink:href="#DejaVuSans-3a"/>
     <use x="735.175781" xlink:href="#DejaVuSans-20"/>
     <use x="766.962891" xlink:href="#DejaVuSans-79"/>
     <use x="826.142578" xlink:href="#DejaVuSans-20"/>
     <use x="857.929688" xlink:href="#DejaVuSans-3d"/>
     <use x="941.71875" xlink:href="#DejaVuSans-20"/>
     <use x="973.505859" xlink:href="#DejaVuSans-61"/>
     <use x="1034.785156" xlink:href="#DejaVuSans-2a"/>
     <use x="1084.785156" xlink:href="#DejaVuSans-73"/>
     <use x="1136.884766" xlink:href="#DejaVuSans-69"/>
     <use x="1164.667969" xlink:href="#DejaVuSans-6e"/>
     <use x="1228.046875" xlink:href="#DejaVuSans-28"/>
     <use x="1267.060547" xlink:href="#DejaVuSans-77"/>
     <use x="1348.847656" xlink:href="#DejaVuSans-2a"/>
     <use x="1398.847656" xlink:href="#DejaVuSans-78"/>
     <use x="1458.027344" xlink:href="#DejaVuSans-2d"/>
     <use x="1494.111328" xlink:href="#DejaVuSans-62"/>
     <use x="1557.587891" xlink:href="#DejaVuSans-29"/>
     <use x="1596.601562" xlink:href="#DejaVuSans-2b"/>
     <use x="1680.390625" xlink:href="#DejaVuSans-63"/>
    </g>
    <!-- Fit: a=-0.000963$\pm$2.7e-05, w=1.103$\pm$0.029, b=0.99$\pm$0.074, -->
    <defs>
     <path d="M 10.984375 1.515625 
L 10.984375 10.5 
Q 14.703125 8.734375 18.5 7.8125 
Q 22.3125 6.890625 25.984375 6.890625 
Q 35.75 6.890625 40.890625 13.453125 
Q 46.046875 20.015625 46.78125 33.40625 
Q 43.953125 29.203125 39.59375 26.953125 
Q 35.25 24.703125 29.984375 24.703125 
Q 19.046875 24.703125 12.671875 31.3125 
Q 6.296875 37.9375 6.296875 49.421875 
Q 6.296875 60.640625 12.9375 67.421875 
Q 19.578125 74.21875 30.609375 74.21875 
Q 43.265625 74.21875 49.921875 64.515625 
Q 56.59375 54.828125 56.59375 36.375 
Q 56.59375 19.140625 48.40625 8.859375 
Q 40.234375 -1.421875 26.421875 -1.421875 
Q 22.703125 -1.421875 18.890625 -0.6875 
Q 15.09375 0.046875 10.984375 1.515625 
z
M 30.609375 32.421875 
Q 37.25 32.421875 41.125 36.953125 
Q 45.015625 41.5 45.015625 49.421875 
Q 45.015625 57.28125 41.125 61.84375 
Q 37.25 66.40625 30.609375 66.40625 
Q 23.96875 66.40625 20.09375 61.84375 
Q 16.21875 57.28125 16.21875 49.421875 
Q 16.21875 41.5 20.09375 36.953125 
Q 23.96875 32.421875 30.609375 32.421875 
z
" id="DejaVuSans-39"/>
     <path d="M 33.015625 40.375 
Q 26.375 40.375 22.484375 35.828125 
Q 18.609375 31.296875 18.609375 23.390625 
Q 18.609375 15.53125 22.484375 10.953125 
Q 26.375 6.390625 33.015625 6.390625 
Q 39.65625 6.390625 43.53125 10.953125 
Q 47.40625 15.53125 47.40625 23.390625 
Q 47.40625 31.296875 43.53125 35.828125 
Q 39.65625 40.375 33.015625 40.375 
z
M 52.59375 71.296875 
L 52.59375 62.3125 
Q 48.875 64.0625 45.09375 64.984375 
Q 41.3125 65.921875 37.59375 65.921875 
Q 27.828125 65.921875 22.671875 59.328125 
Q 17.53125 52.734375 16.796875 39.40625 
Q 19.671875 43.65625 24.015625 45.921875 
Q 28.375 48.1875 33.59375 48.1875 
Q 44.578125 48.1875 50.953125 41.515625 
Q 57.328125 34.859375 57.328125 23.390625 
Q 57.328125 12.15625 50.6875 5.359375 
Q 44.046875 -1.421875 33.015625 -1.421875 
Q 20.359375 -1.421875 13.671875 8.265625 
Q 6.984375 17.96875 6.984375 36.375 
Q 6.984375 53.65625 15.1875 63.9375 
Q 23.390625 74.21875 37.203125 74.21875 
Q 40.921875 74.21875 44.703125 73.484375 
Q 48.484375 72.75 52.59375 71.296875 
z
" id="DejaVuSans-36"/>
     <path d="M 40.578125 39.3125 
Q 47.65625 37.796875 51.625 33 
Q 55.609375 28.21875 55.609375 21.1875 
Q 55.609375 10.40625 48.1875 4.484375 
Q 40.765625 -1.421875 27.09375 -1.421875 
Q 22.515625 -1.421875 17.65625 -0.515625 
Q 12.796875 0.390625 7.625 2.203125 
L 7.625 11.71875 
Q 11.71875 9.328125 16.59375 8.109375 
Q 21.484375 6.890625 26.8125 6.890625 
Q 36.078125 6.890625 40.9375 10.546875 
Q 45.796875 14.203125 45.796875 21.1875 
Q 45.796875 27.640625 41.28125 31.265625 
Q 36.765625 34.90625 28.71875 34.90625 
L 20.21875 34.90625 
L 20.21875 43.015625 
L 29.109375 43.015625 
Q 36.375 43.015625 40.234375 45.921875 
Q 44.09375 48.828125 44.09375 54.296875 
Q 44.09375 59.90625 40.109375 62.90625 
Q 36.140625 65.921875 28.71875 65.921875 
Q 24.65625 65.921875 20.015625 65.03125 
Q 15.375 64.15625 9.8125 62.3125 
L 9.8125 71.09375 
Q 15.4375 72.65625 20.34375 73.4375 
Q 25.25 74.21875 29.59375 74.21875 
Q 40.828125 74.21875 47.359375 69.109375 
Q 53.90625 64.015625 53.90625 55.328125 
Q 53.90625 49.265625 50.4375 45.09375 
Q 46.96875 40.921875 40.578125 39.3125 
z
" id="DejaVuSans-33"/>
     <path d="M 46 62.703125 
L 46 43.796875 
L 73.1875 43.796875 
L 73.1875 35.5 
L 46 35.5 
L 46 16.609375 
L 37.796875 16.609375 
L 37.796875 35.5 
L 10.59375 35.5 
L 10.59375 43.796875 
L 37.796875 43.796875 
L 37.796875 62.703125 
z
M 10.59375 8.296875 
L 73.1875 8.296875 
L 73.1875 0 
L 10.59375 0 
z
" id="DejaVuSans-b1"/>
     <path d="M 19.1875 8.296875 
L 53.609375 8.296875 
L 53.609375 0 
L 7.328125 0 
L 7.328125 8.296875 
Q 12.9375 14.109375 22.625 23.890625 
Q 32.328125 33.6875 34.8125 36.53125 
Q 39.546875 41.84375 41.421875 45.53125 
Q 43.3125 49.21875 43.3125 52.78125 
Q 43.3125 58.59375 39.234375 62.25 
Q 35.15625 65.921875 28.609375 65.921875 
Q 23.96875 65.921875 18.8125 64.3125 
Q 13.671875 62.703125 7.8125 59.421875 
L 7.8125 69.390625 
Q 13.765625 71.78125 18.9375 73 
Q 24.125 74.21875 28.421875 74.21875 
Q 39.75 74.21875 46.484375 68.546875 
Q 53.21875 62.890625 53.21875 53.421875 
Q 53.21875 48.921875 51.53125 44.890625 
Q 49.859375 40.875 45.40625 35.40625 
Q 44.1875 33.984375 37.640625 27.21875 
Q 31.109375 20.453125 19.1875 8.296875 
z
" id="DejaVuSans-32"/>
     <path d="M 8.203125 72.90625 
L 55.078125 72.90625 
L 55.078125 68.703125 
L 28.609375 0 
L 18.3125 0 
L 43.21875 64.59375 
L 8.203125 64.59375 
z
" id="DejaVuSans-37"/>
     <path d="M 11.71875 12.40625 
L 22.015625 12.40625 
L 22.015625 4 
L 14.015625 -11.625 
L 7.71875 -11.625 
L 11.71875 4 
z
" id="DejaVuSans-2c"/>
     <path d="M 12.40625 8.296875 
L 28.515625 8.296875 
L 28.515625 63.921875 
L 10.984375 60.40625 
L 10.984375 69.390625 
L 28.421875 72.90625 
L 38.28125 72.90625 
L 38.28125 8.296875 
L 54.390625 8.296875 
L 54.390625 0 
L 12.40625 0 
z
" id="DejaVuSans-31"/>
     <path d="M 37.796875 64.3125 
L 12.890625 25.390625 
L 37.796875 25.390625 
z
M 35.203125 72.90625 
L 47.609375 72.90625 
L 47.609375 25.390625 
L 58.015625 25.390625 
L 58.015625 17.1875 
L 47.609375 17.1875 
L 47.609375 0 
L 37.796875 0 
L 37.796875 17.1875 
L 4.890625 17.1875 
L 4.890625 26.703125 
z
" id="DejaVuSans-34"/>
    </defs>
    <g transform="translate(69.12 27.730187)scale(0.1 -0.1)">
     <use transform="translate(0 0.015625)" xlink:href="#DejaVuSans-46"/>
     <use transform="translate(57.519531 0.015625)" xlink:href="#DejaVuSans-69"/>
     <use transform="translate(85.302734 0.015625)" xlink:href="#DejaVuSans-74"/>
     <use transform="translate(124.511719 0.015625)" xlink:href="#DejaVuSans-3a"/>
     <use transform="translate(158.203125 0.015625)" xlink:href="#DejaVuSans-20"/>
     <use transform="translate(189.990234 0.015625)" xlink:href="#DejaVuSans-61"/>
     <use transform="translate(251.269531 0.015625)" xlink:href="#DejaVuSans-3d"/>
     <use transform="translate(335.058594 0.015625)" xlink:href="#DejaVuSans-2d"/>
     <use transform="translate(371.142578 0.015625)" xlink:href="#DejaVuSans-30"/>
     <use transform="translate(434.765625 0.015625)" xlink:href="#DejaVuSans-2e"/>
     <use transform="translate(466.552734 0.015625)" xlink:href="#DejaVuSans-30"/>
     <use transform="translate(530.175781 0.015625)" xlink:href="#DejaVuSans-30"/>
     <use transform="translate(593.798828 0.015625)" xlink:href="#DejaVuSans-30"/>
     <use transform="translate(657.421875 0.015625)" xlink:href="#DejaVuSans-39"/>
     <use transform="translate(721.044922 0.015625)" xlink:href="#DejaVuSans-36"/>
     <use transform="translate(784.667969 0.015625)" xlink:href="#DejaVuSans-33"/>
     <use transform="translate(848.291016 0.015625)" xlink:href="#DejaVuSans-b1"/>
     <use transform="translate(932.080078 0.015625)" xlink:href="#DejaVuSans-32"/>
     <use transform="translate(995.703125 0.015625)" xlink:href="#DejaVuSans-2e"/>
     <use transform="translate(1027.380859 0.015625)" xlink:href="#DejaVuSans-37"/>
     <use transform="translate(1091.003906 0.015625)" xlink:href="#DejaVuSans-65"/>
     <use transform="translate(1152.527344 0.015625)" xlink:href="#DejaVuSans-2d"/>
     <use transform="translate(1188.611328 0.015625)" xlink:href="#DejaVuSans-30"/>
     <use transform="translate(1252.234375 0.015625)" xlink:href="#DejaVuSans-35"/>
     <use transform="translate(1315.857422 0.015625)" xlink:href="#DejaVuSans-2c"/>
     <use transform="translate(1347.644531 0.015625)" xlink:href="#DejaVuSans-20"/>
     <use transform="translate(1379.431641 0.015625)" xlink:href="#DejaVuSans-77"/>
     <use transform="translate(1461.21875 0.015625)" xlink:href="#DejaVuSans-3d"/>
     <use transform="translate(1545.007812 0.015625)" xlink:href="#DejaVuSans-31"/>
     <use transform="translate(1608.630859 0.015625)" xlink:href="#DejaVuSans-2e"/>
     <use transform="translate(1640.417969 0.015625)" xlink:href="#DejaVuSans-31"/>
     <use transform="translate(1704.041016 0.015625)" xlink:href="#DejaVuSans-30"/>
     <use transform="translate(1767.664062 0.015625)" xlink:href="#DejaVuSans-33"/>
     <use transform="translate(1831.287109 0.015625)" xlink:href="#DejaVuSans-b1"/>
     <use transform="translate(1915.076172 0.015625)" xlink:href="#DejaVuSans-30"/>
     <use transform="translate(1978.699219 0.015625)" xlink:href="#DejaVuSans-2e"/>
     <use transform="translate(2010.486328 0.015625)" xlink:href="#DejaVuSans-30"/>
     <use transform="translate(2074.109375 0.015625)" xlink:href="#DejaVuSans-32"/>
     <use transform="translate(2137.716797 0.015625)" xlink:href="#DejaVuSans-39"/>
     <use transform="translate(2201.339844 0.015625)" xlink:href="#DejaVuSans-2c"/>
     <use transform="translate(2233.126953 0.015625)" xlink:href="#DejaVuSans-20"/>
     <use transform="translate(2264.914062 0.015625)" xlink:href="#DejaVuSans-62"/>
     <use transform="translate(2328.390625 0.015625)" xlink:href="#DejaVuSans-3d"/>
     <use transform="translate(2412.179688 0.015625)" xlink:href="#DejaVuSans-30"/>
     <use transform="translate(2475.802734 0.015625)" xlink:href="#DejaVuSans-2e"/>
     <use transform="translate(2507.589844 0.015625)" xlink:href="#DejaVuSans-39"/>
     <use transform="translate(2571.212891 0.015625)" xlink:href="#DejaVuSans-39"/>
     <use transform="translate(2634.835938 0.015625)" xlink:href="#DejaVuSans-b1"/>
     <use transform="translate(2718.625 0.015625)" xlink:href="#DejaVuSans-30"/>
     <use transform="translate(2782.248047 0.015625)" xlink:href="#DejaVuSans-2e"/>
     <use transform="translate(2814.035156 0.015625)" xlink:href="#DejaVuSans-30"/>
     <use transform="translate(2877.658203 0.015625)" xlink:href="#DejaVuSans-37"/>
     <use transform="translate(2941.28125 0.015625)" xlink:href="#DejaVuSans-34"/>
     <use transform="translate(3004.904297 0.015625)" xlink:href="#DejaVuSans-2c"/>
    </g>
    <!--       c=0.00221$\pm$2.6e-05, -->
    <g transform="translate(69.12 38.928)scale(0.1 -0.1)">
     <use transform="translate(0 0.78125)" xlink:href="#DejaVuSans-20"/>
     <use transform="translate(31.787109 0.78125)" xlink:href="#DejaVuSans-20"/>
     <use transform="translate(63.574219 0.78125)" xlink:href="#DejaVuSans-20"/>
     <use transform="translate(95.361328 0.78125)" xlink:href="#DejaVuSans-20"/>
     <use transform="translate(127.148438 0.78125)" xlink:href="#DejaVuSans-20"/>
     <use transform="translate(158.935547 0.78125)" xlink:href="#DejaVuSans-20"/>
     <use transform="translate(190.722656 0.78125)" xlink:href="#DejaVuSans-63"/>
     <use transform="translate(245.703125 0.78125)" xlink:href="#DejaVuSans-3d"/>
     <use transform="translate(329.492188 0.78125)" xlink:href="#DejaVuSans-30"/>
     <use transform="translate(393.115234 0.78125)" xlink:href="#DejaVuSans-2e"/>
     <use transform="translate(424.902344 0.78125)" xlink:href="#DejaVuSans-30"/>
     <use transform="translate(488.525391 0.78125)" xlink:href="#DejaVuSans-30"/>
     <use transform="translate(552.148438 0.78125)" xlink:href="#DejaVuSans-32"/>
     <use transform="translate(615.771484 0.78125)" xlink:href="#DejaVuSans-32"/>
     <use transform="translate(679.394531 0.78125)" xlink:href="#DejaVuSans-31"/>
     <use transform="translate(743.017578 0.78125)" xlink:href="#DejaVuSans-b1"/>
     <use transform="translate(826.806641 0.78125)" xlink:href="#DejaVuSans-32"/>
     <use transform="translate(890.429688 0.78125)" xlink:href="#DejaVuSans-2e"/>
     <use transform="translate(922.216797 0.78125)" xlink:href="#DejaVuSans-36"/>
     <use transform="translate(985.839844 0.78125)" xlink:href="#DejaVuSans-65"/>
     <use transform="translate(1047.363281 0.78125)" xlink:href="#DejaVuSans-2d"/>
     <use transform="translate(1083.447266 0.78125)" xlink:href="#DejaVuSans-30"/>
     <use transform="translate(1147.070312 0.78125)" xlink:href="#DejaVuSans-35"/>
     <use transform="translate(1210.693359 0.78125)" xlink:href="#DejaVuSans-2c"/>
    </g>
   </g>
  </g>
  <g id="axes_2">
   <g id="patch_7">
    <path d="M 69.12 311.04 
L 414.72 311.04 
L 414.72 103.68 
L 69.12 103.68 
z
" style="fill:#ffffff;"/>
   </g>
   <g id="matplotlib.axis_3">
    <g id="xtick_8">
     <g id="line2d_13">
      <g>
       <use style="stroke:#000000;stroke-width:0.8;" x="81.92" xlink:href="#m2c66d65507" y="311.04"/>
      </g>
     </g>
     <g id="text_5">
      <!-- 0 -->
      <g transform="translate(77.148125 329.437656)scale(0.15 -0.15)">
       <use xlink:href="#DejaVuSans-30"/>
      </g>
     </g>
    </g>
    <g id="xtick_9">
     <g id="line2d_14">
      <g>
       <use style="stroke:#000000;stroke-width:0.8;" x="135.84544" xlink:href="#m2c66d65507" y="311.04"/>
      </g>
     </g>
     <g id="text_6">
      <!-- 1 -->
      <g transform="translate(131.073565 329.437656)scale(0.15 -0.15)">
       <use xlink:href="#DejaVuSans-31"/>
      </g>
     </g>
    </g>
    <g id="xtick_10">
     <g id="line2d_15">
      <g>
       <use style="stroke:#000000;stroke-width:0.8;" x="189.770879" xlink:href="#m2c66d65507" y="311.04"/>
      </g>
     </g>
     <g id="text_7">
      <!-- 2 -->
      <g transform="translate(184.999004 329.437656)scale(0.15 -0.15)">
       <use xlink:href="#DejaVuSans-32"/>
      </g>
     </g>
    </g>
    <g id="xtick_11">
     <g id="line2d_16">
      <g>
       <use style="stroke:#000000;stroke-width:0.8;" x="243.696319" xlink:href="#m2c66d65507" y="311.04"/>
      </g>
     </g>
     <g id="text_8">
      <!-- 3 -->
      <g transform="translate(238.924444 329.437656)scale(0.15 -0.15)">
       <use xlink:href="#DejaVuSans-33"/>
      </g>
     </g>
    </g>
    <g id="xtick_12">
     <g id="line2d_17">
      <g>
       <use style="stroke:#000000;stroke-width:0.8;" x="297.621758" xlink:href="#m2c66d65507" y="311.04"/>
      </g>
     </g>
     <g id="text_9">
      <!-- 4 -->
      <g transform="translate(292.849883 329.437656)scale(0.15 -0.15)">
       <use xlink:href="#DejaVuSans-34"/>
      </g>
     </g>
    </g>
    <g id="xtick_13">
     <g id="line2d_18">
      <g>
       <use style="stroke:#000000;stroke-width:0.8;" x="351.547198" xlink:href="#m2c66d65507" y="311.04"/>
      </g>
     </g>
     <g id="text_10">
      <!-- 5 -->
      <g transform="translate(346.775323 329.437656)scale(0.15 -0.15)">
       <use xlink:href="#DejaVuSans-35"/>
      </g>
     </g>
    </g>
    <g id="xtick_14">
     <g id="line2d_19">
      <g>
       <use style="stroke:#000000;stroke-width:0.8;" x="405.472637" xlink:href="#m2c66d65507" y="311.04"/>
      </g>
     </g>
     <g id="text_11">
      <!-- 6 -->
      <g transform="translate(400.700762 329.437656)scale(0.15 -0.15)">
       <use xlink:href="#DejaVuSans-36"/>
      </g>
     </g>
    </g>
    <g id="text_12">
     <!-- Angle [rad] -->
     <defs>
      <path d="M 34.1875 63.1875 
L 20.796875 26.90625 
L 47.609375 26.90625 
z
M 28.609375 72.90625 
L 39.796875 72.90625 
L 67.578125 0 
L 57.328125 0 
L 50.6875 18.703125 
L 17.828125 18.703125 
L 11.1875 0 
L 0.78125 0 
z
" id="DejaVuSans-41"/>
      <path d="M 45.40625 27.984375 
Q 45.40625 37.75 41.375 43.109375 
Q 37.359375 48.484375 30.078125 48.484375 
Q 22.859375 48.484375 18.828125 43.109375 
Q 14.796875 37.75 14.796875 27.984375 
Q 14.796875 18.265625 18.828125 12.890625 
Q 22.859375 7.515625 30.078125 7.515625 
Q 37.359375 7.515625 41.375 12.890625 
Q 45.40625 18.265625 45.40625 27.984375 
z
M 54.390625 6.78125 
Q 54.390625 -7.171875 48.1875 -13.984375 
Q 42 -20.796875 29.203125 -20.796875 
Q 24.46875 -20.796875 20.265625 -20.09375 
Q 16.0625 -19.390625 12.109375 -17.921875 
L 12.109375 -9.1875 
Q 16.0625 -11.328125 19.921875 -12.34375 
Q 23.78125 -13.375 27.78125 -13.375 
Q 36.625 -13.375 41.015625 -8.765625 
Q 45.40625 -4.15625 45.40625 5.171875 
L 45.40625 9.625 
Q 42.625 4.78125 38.28125 2.390625 
Q 33.9375 0 27.875 0 
Q 17.828125 0 11.671875 7.65625 
Q 5.515625 15.328125 5.515625 27.984375 
Q 5.515625 40.671875 11.671875 48.328125 
Q 17.828125 56 27.875 56 
Q 33.9375 56 38.28125 53.609375 
Q 42.625 51.21875 45.40625 46.390625 
L 45.40625 54.6875 
L 54.390625 54.6875 
z
" id="DejaVuSans-67"/>
      <path d="M 8.59375 75.984375 
L 29.296875 75.984375 
L 29.296875 69 
L 17.578125 69 
L 17.578125 -6.203125 
L 29.296875 -6.203125 
L 29.296875 -13.1875 
L 8.59375 -13.1875 
z
" id="DejaVuSans-5b"/>
      <path d="M 41.109375 46.296875 
Q 39.59375 47.171875 37.8125 47.578125 
Q 36.03125 48 33.890625 48 
Q 26.265625 48 22.1875 43.046875 
Q 18.109375 38.09375 18.109375 28.8125 
L 18.109375 0 
L 9.078125 0 
L 9.078125 54.6875 
L 18.109375 54.6875 
L 18.109375 46.1875 
Q 20.953125 51.171875 25.484375 53.578125 
Q 30.03125 56 36.53125 56 
Q 37.453125 56 38.578125 55.875 
Q 39.703125 55.765625 41.0625 55.515625 
z
" id="DejaVuSans-72"/>
      <path d="M 30.421875 75.984375 
L 30.421875 -13.1875 
L 9.71875 -13.1875 
L 9.71875 -6.203125 
L 21.390625 -6.203125 
L 21.390625 69 
L 9.71875 69 
L 9.71875 75.984375 
z
" id="DejaVuSans-5d"/>
     </defs>
     <g transform="translate(199.900078 347.954844)scale(0.15 -0.15)">
      <use xlink:href="#DejaVuSans-41"/>
      <use x="68.408203" xlink:href="#DejaVuSans-6e"/>
      <use x="131.787109" xlink:href="#DejaVuSans-67"/>
      <use x="195.263672" xlink:href="#DejaVuSans-6c"/>
      <use x="223.046875" xlink:href="#DejaVuSans-65"/>
      <use x="284.570312" xlink:href="#DejaVuSans-20"/>
      <use x="316.357422" xlink:href="#DejaVuSans-5b"/>
      <use x="355.371094" xlink:href="#DejaVuSans-72"/>
      <use x="396.484375" xlink:href="#DejaVuSans-61"/>
      <use x="457.763672" xlink:href="#DejaVuSans-64"/>
      <use x="521.240234" xlink:href="#DejaVuSans-5d"/>
     </g>
    </g>
   </g>
   <g id="matplotlib.axis_4">
    <g id="ytick_4">
     <g id="line2d_20">
      <g>
       <use style="stroke:#000000;stroke-width:0.8;" x="69.12" xlink:href="#m28e67dc663" y="280.732246"/>
      </g>
     </g>
     <g id="text_13">
      <!-- 0.0015 -->
      <g transform="translate(9.634063 286.431074)scale(0.15 -0.15)">
       <use xlink:href="#DejaVuSans-30"/>
       <use x="63.623047" xlink:href="#DejaVuSans-2e"/>
       <use x="95.410156" xlink:href="#DejaVuSans-30"/>
       <use x="159.033203" xlink:href="#DejaVuSans-30"/>
       <use x="222.65625" xlink:href="#DejaVuSans-31"/>
       <use x="286.279297" xlink:href="#DejaVuSans-35"/>
      </g>
     </g>
    </g>
    <g id="ytick_5">
     <g id="line2d_21">
      <g>
       <use style="stroke:#000000;stroke-width:0.8;" x="69.12" xlink:href="#m28e67dc663" y="232.04947"/>
      </g>
     </g>
     <g id="text_14">
      <!-- 0.0020 -->
      <g transform="translate(9.634063 237.748298)scale(0.15 -0.15)">
       <use xlink:href="#DejaVuSans-30"/>
       <use x="63.623047" xlink:href="#DejaVuSans-2e"/>
       <use x="95.410156" xlink:href="#DejaVuSans-30"/>
       <use x="159.033203" xlink:href="#DejaVuSans-30"/>
       <use x="222.65625" xlink:href="#DejaVuSans-32"/>
       <use x="286.279297" xlink:href="#DejaVuSans-30"/>
      </g>
     </g>
    </g>
    <g id="ytick_6">
     <g id="line2d_22">
      <g>
       <use style="stroke:#000000;stroke-width:0.8;" x="69.12" xlink:href="#m28e67dc663" y="183.366694"/>
      </g>
     </g>
     <g id="text_15">
      <!-- 0.0025 -->
      <g transform="translate(9.634063 189.065522)scale(0.15 -0.15)">
       <use xlink:href="#DejaVuSans-30"/>
       <use x="63.623047" xlink:href="#DejaVuSans-2e"/>
       <use x="95.410156" xlink:href="#DejaVuSans-30"/>
       <use x="159.033203" xlink:href="#DejaVuSans-30"/>
       <use x="222.65625" xlink:href="#DejaVuSans-32"/>
       <use x="286.279297" xlink:href="#DejaVuSans-35"/>
      </g>
     </g>
    </g>
    <g id="ytick_7">
     <g id="line2d_23">
      <g>
       <use style="stroke:#000000;stroke-width:0.8;" x="69.12" xlink:href="#m28e67dc663" y="134.683918"/>
      </g>
     </g>
     <g id="text_16">
      <!-- 0.0030 -->
      <g transform="translate(9.634063 140.382746)scale(0.15 -0.15)">
       <use xlink:href="#DejaVuSans-30"/>
       <use x="63.623047" xlink:href="#DejaVuSans-2e"/>
       <use x="95.410156" xlink:href="#DejaVuSans-30"/>
       <use x="159.033203" xlink:href="#DejaVuSans-30"/>
       <use x="222.65625" xlink:href="#DejaVuSans-33"/>
       <use x="286.279297" xlink:href="#DejaVuSans-30"/>
      </g>
     </g>
    </g>
    <g id="text_17">
     <!-- Voltage Difference [V] -->
     <defs>
      <path d="M 28.609375 0 
L 0.78125 72.90625 
L 11.078125 72.90625 
L 34.1875 11.53125 
L 57.328125 72.90625 
L 67.578125 72.90625 
L 39.796875 0 
z
" id="DejaVuSans-56"/>
      <path d="M 19.671875 64.796875 
L 19.671875 8.109375 
L 31.59375 8.109375 
Q 46.6875 8.109375 53.6875 14.9375 
Q 60.6875 21.78125 60.6875 36.53125 
Q 60.6875 51.171875 53.6875 57.984375 
Q 46.6875 64.796875 31.59375 64.796875 
z
M 9.8125 72.90625 
L 30.078125 72.90625 
Q 51.265625 72.90625 61.171875 64.09375 
Q 71.09375 55.28125 71.09375 36.53125 
Q 71.09375 17.671875 61.125 8.828125 
Q 51.171875 0 30.078125 0 
L 9.8125 0 
z
" id="DejaVuSans-44"/>
      <path d="M 37.109375 75.984375 
L 37.109375 68.5 
L 28.515625 68.5 
Q 23.6875 68.5 21.796875 66.546875 
Q 19.921875 64.59375 19.921875 59.515625 
L 19.921875 54.6875 
L 34.71875 54.6875 
L 34.71875 47.703125 
L 19.921875 47.703125 
L 19.921875 0 
L 10.890625 0 
L 10.890625 47.703125 
L 2.296875 47.703125 
L 2.296875 54.6875 
L 10.890625 54.6875 
L 10.890625 58.5 
Q 10.890625 67.625 15.140625 71.796875 
Q 19.390625 75.984375 28.609375 75.984375 
z
" id="DejaVuSans-66"/>
     </defs>
     <g transform="translate(2.514531 290.758828)rotate(-90)scale(0.15 -0.15)">
      <use xlink:href="#DejaVuSans-56"/>
      <use x="68.298828" xlink:href="#DejaVuSans-6f"/>
      <use x="129.480469" xlink:href="#DejaVuSans-6c"/>
      <use x="157.263672" xlink:href="#DejaVuSans-74"/>
      <use x="196.472656" xlink:href="#DejaVuSans-61"/>
      <use x="257.751953" xlink:href="#DejaVuSans-67"/>
      <use x="321.228516" xlink:href="#DejaVuSans-65"/>
      <use x="382.751953" xlink:href="#DejaVuSans-20"/>
      <use x="414.539062" xlink:href="#DejaVuSans-44"/>
      <use x="491.541016" xlink:href="#DejaVuSans-69"/>
      <use x="519.324219" xlink:href="#DejaVuSans-66"/>
      <use x="554.529297" xlink:href="#DejaVuSans-66"/>
      <use x="589.734375" xlink:href="#DejaVuSans-65"/>
      <use x="651.257812" xlink:href="#DejaVuSans-72"/>
      <use x="692.339844" xlink:href="#DejaVuSans-65"/>
      <use x="753.863281" xlink:href="#DejaVuSans-6e"/>
      <use x="817.242188" xlink:href="#DejaVuSans-63"/>
      <use x="872.222656" xlink:href="#DejaVuSans-65"/>
      <use x="933.746094" xlink:href="#DejaVuSans-20"/>
      <use x="965.533203" xlink:href="#DejaVuSans-5b"/>
      <use x="1004.546875" xlink:href="#DejaVuSans-56"/>
      <use x="1072.955078" xlink:href="#DejaVuSans-5d"/>
     </g>
    </g>
   </g>
   <g id="LineCollection_2">
    <path clip-path="url(#pc8beb18ce1)" d="M 288.978824 204.213971 
L 288.978824 181.055384 
" style="fill:none;stroke:#0000ff;stroke-width:1.5;"/>
    <path clip-path="url(#pc8beb18ce1)" d="M 194.861176 311.017302 
L 194.861176 293.626378 
" style="fill:none;stroke:#0000ff;stroke-width:1.5;"/>
    <path clip-path="url(#pc8beb18ce1)" d="M 383.096471 147.995161 
L 383.096471 74.724839 
" style="fill:none;stroke:#0000ff;stroke-width:1.5;"/>
    <path clip-path="url(#pc8beb18ce1)" d="M 270.155294 243.239641 
L 270.155294 235.152561 
" style="fill:none;stroke:#0000ff;stroke-width:1.5;"/>
    <path clip-path="url(#pc8beb18ce1)" d="M 232.508235 304.137042 
L 232.508235 290.395225 
" style="fill:none;stroke:#0000ff;stroke-width:1.5;"/>
    <path clip-path="url(#pc8beb18ce1)" d="M 81.92 189.577351 
L 81.92 109.603817 
" style="fill:none;stroke:#0000ff;stroke-width:1.5;"/>
    <path clip-path="url(#pc8beb18ce1)" d="M 251.331765 277.268088 
L 251.331765 262.573949 
" style="fill:none;stroke:#0000ff;stroke-width:1.5;"/>
    <path clip-path="url(#pc8beb18ce1)" d="M 401.92 246.302388 
L 401.92 42.767367 
" style="fill:none;stroke:#0000ff;stroke-width:1.5;"/>
    <path clip-path="url(#pc8beb18ce1)" d="M 307.802353 172.78712 
L 307.802353 157.908843 
" style="fill:none;stroke:#0000ff;stroke-width:1.5;"/>
    <path clip-path="url(#pc8beb18ce1)" d="M 157.214118 274.01764 
L 157.214118 215.316017 
" style="fill:none;stroke:#0000ff;stroke-width:1.5;"/>
    <path clip-path="url(#pc8beb18ce1)" d="M 100.743529 184.650647 
L 100.743529 144.592135 
" style="fill:none;stroke:#0000ff;stroke-width:1.5;"/>
    <path clip-path="url(#pc8beb18ce1)" d="M 119.567059 243.121084 
L 119.567059 158.469171 
" style="fill:none;stroke:#0000ff;stroke-width:1.5;"/>
    <path clip-path="url(#pc8beb18ce1)" d="M 345.449412 143.331353 
L 345.449412 89.475718 
" style="fill:none;stroke:#0000ff;stroke-width:1.5;"/>
    <path clip-path="url(#pc8beb18ce1)" d="M 138.390588 231.498849 
L 138.390588 223.92482 
" style="fill:none;stroke:#0000ff;stroke-width:1.5;"/>
    <path clip-path="url(#pc8beb18ce1)" d="M 176.037647 289.522481 
L 176.037647 280.680569 
" style="fill:none;stroke:#0000ff;stroke-width:1.5;"/>
    <path clip-path="url(#pc8beb18ce1)" d="M 326.625882 152.630708 
L 326.625882 117.929856 
" style="fill:none;stroke:#0000ff;stroke-width:1.5;"/>
    <path clip-path="url(#pc8beb18ce1)" d="M 364.272941 123.013464 
L 364.272941 114.177491 
" style="fill:none;stroke:#0000ff;stroke-width:1.5;"/>
    <path clip-path="url(#pc8beb18ce1)" d="M 213.684706 308.915622 
L 213.684706 297.804378 
" style="fill:none;stroke:#0000ff;stroke-width:1.5;"/>
   </g>
   <g id="line2d_24">
    <path clip-path="url(#pc8beb18ce1)" d="M 81.92 133.140567 
L 85.123203 136.674173 
L 88.326406 140.528831 
L 91.84993 145.120004 
L 95.693774 150.520735 
L 99.537618 156.298234 
L 103.701782 162.940948 
L 108.506587 171.040027 
L 113.952032 180.686908 
L 120.358438 192.516258 
L 129.647728 210.192848 
L 142.460541 234.522168 
L 148.866947 246.200106 
L 154.312392 255.667339 
L 159.117197 263.570875 
L 163.281361 270.017544 
L 167.125205 275.593462 
L 170.969049 280.774094 
L 174.492573 285.148403 
L 177.695776 288.794343 
L 180.898979 292.109141 
L 183.781862 294.797555 
L 186.664745 297.196875 
L 189.547628 299.29877 
L 192.11019 300.911505 
L 194.672753 302.279028 
L 197.235315 303.397586 
L 199.797878 304.264111 
L 202.36044 304.876223 
L 204.923003 305.232244 
L 207.165245 305.332901 
L 209.407487 305.236518 
L 211.64973 304.943298 
L 214.212292 304.367971 
L 216.774855 303.537948 
L 219.337417 302.455506 
L 221.89998 301.123614 
L 224.462543 299.54593 
L 227.025105 297.726781 
L 229.907988 295.397854 
L 232.790871 292.77775 
L 235.673754 289.875567 
L 238.876957 286.332377 
L 242.08016 282.4686 
L 245.603684 277.867976 
L 249.447528 272.457685 
L 253.611692 266.173416 
L 258.096176 258.96466 
L 262.900981 250.80074 
L 268.346426 241.095248 
L 275.073153 228.614588 
L 285.643724 208.444246 
L 296.214294 188.418734 
L 302.620701 176.748032 
L 308.066146 167.289196 
L 312.870951 159.394698 
L 317.035115 152.957026 
L 320.878959 147.390315 
L 324.722803 142.219695 
L 328.246326 137.855222 
L 331.44953 134.218722 
L 334.652733 130.913801 
L 337.535616 128.234612 
L 340.418498 125.844802 
L 343.301381 123.752671 
L 345.863944 122.1488 
L 348.426507 120.79029 
L 350.989069 119.680868 
L 353.551632 118.823578 
L 356.114194 118.220775 
L 358.676757 117.874111 
L 360.918999 117.78166 
L 363.161241 117.886249 
L 365.403483 118.187658 
L 367.966046 118.7723 
L 370.528609 119.611567 
L 373.091171 120.703158 
L 375.653734 122.044076 
L 378.216296 123.630642 
L 380.778859 125.458502 
L 383.661742 127.796994 
L 386.544625 130.426386 
L 389.747828 133.677969 
L 392.951031 137.26345 
L 396.154234 141.167454 
L 399.677758 145.809738 
L 401.92 148.943087 
L 401.92 148.943087 
" style="fill:none;stroke:#ff0000;stroke-linecap:square;stroke-width:1.5;"/>
   </g>
   <g id="line2d_25">
    <g clip-path="url(#pc8beb18ce1)">
     <use style="fill:#0000ff;stroke:#0000ff;" x="288.978824" xlink:href="#m4891977fb3" y="192.634677"/>
     <use style="fill:#0000ff;stroke:#0000ff;" x="194.861176" xlink:href="#m4891977fb3" y="302.32184"/>
     <use style="fill:#0000ff;stroke:#0000ff;" x="383.096471" xlink:href="#m4891977fb3" y="111.36"/>
     <use style="fill:#0000ff;stroke:#0000ff;" x="270.155294" xlink:href="#m4891977fb3" y="239.196101"/>
     <use style="fill:#0000ff;stroke:#0000ff;" x="232.508235" xlink:href="#m4891977fb3" y="297.266134"/>
     <use style="fill:#0000ff;stroke:#0000ff;" x="81.92" xlink:href="#m4891977fb3" y="149.590584"/>
     <use style="fill:#0000ff;stroke:#0000ff;" x="251.331765" xlink:href="#m4891977fb3" y="269.921018"/>
     <use style="fill:#0000ff;stroke:#0000ff;" x="401.92" xlink:href="#m4891977fb3" y="144.534878"/>
     <use style="fill:#0000ff;stroke:#0000ff;" x="307.802353" xlink:href="#m4891977fb3" y="165.347981"/>
     <use style="fill:#0000ff;stroke:#0000ff;" x="157.214118" xlink:href="#m4891977fb3" y="244.666828"/>
     <use style="fill:#0000ff;stroke:#0000ff;" x="100.743529" xlink:href="#m4891977fb3" y="164.621391"/>
     <use style="fill:#0000ff;stroke:#0000ff;" x="119.567059" xlink:href="#m4891977fb3" y="200.795128"/>
     <use style="fill:#0000ff;stroke:#0000ff;" x="345.449412" xlink:href="#m4891977fb3" y="116.403536"/>
     <use style="fill:#0000ff;stroke:#0000ff;" x="138.390588" xlink:href="#m4891977fb3" y="227.711834"/>
     <use style="fill:#0000ff;stroke:#0000ff;" x="176.037647" xlink:href="#m4891977fb3" y="285.101525"/>
     <use style="fill:#0000ff;stroke:#0000ff;" x="326.625882" xlink:href="#m4891977fb3" y="135.280282"/>
     <use style="fill:#0000ff;stroke:#0000ff;" x="364.272941" xlink:href="#m4891977fb3" y="118.595478"/>
     <use style="fill:#0000ff;stroke:#0000ff;" x="213.684706" xlink:href="#m4891977fb3" y="303.36"/>
    </g>
   </g>
   <g id="patch_8">
    <path d="M 69.12 311.04 
L 69.12 103.68 
" style="fill:none;stroke:#000000;stroke-linecap:square;stroke-linejoin:miter;stroke-width:0.8;"/>
   </g>
   <g id="patch_9">
    <path d="M 414.72 311.04 
L 414.72 103.68 
" style="fill:none;stroke:#000000;stroke-linecap:square;stroke-linejoin:miter;stroke-width:0.8;"/>
   </g>
   <g id="patch_10">
    <path d="M 69.12 311.04 
L 414.72 311.04 
" style="fill:none;stroke:#000000;stroke-linecap:square;stroke-linejoin:miter;stroke-width:0.8;"/>
   </g>
   <g id="patch_11">
    <path d="M 69.12 103.68 
L 414.72 103.68 
" style="fill:none;stroke:#000000;stroke-linecap:square;stroke-linejoin:miter;stroke-width:0.8;"/>
   </g>
  </g>
 </g>
 <defs>
  <clipPath id="p0901d588db">
   <rect height="51.84" width="345.6" x="69.12" y="44.928"/>
  </clipPath>
  <clipPath id="pc8beb18ce1">
   <rect height="207.36" width="345.6" x="69.12" y="103.68"/>
  </clipPath>
 </defs>
</svg>
