<?xml version="1.0" encoding="utf-8" standalone="no"?>
<!DOCTYPE svg PUBLIC "-//W3C//DTD SVG 1.1//EN"
  "http://www.w3.org/Graphics/SVG/1.1/DTD/svg11.dtd">
<!-- Created with matplotlib (http://matplotlib.org/) -->
<svg height="345pt" version="1.1" viewBox="0 0 460 345" width="460pt" xmlns="http://www.w3.org/2000/svg" xmlns:xlink="http://www.w3.org/1999/xlink">
 <defs>
  <style type="text/css">
*{stroke-linecap:butt;stroke-linejoin:round;}
  </style>
 </defs>
 <g id="figure_1">
  <g id="patch_1">
   <path d="M 0 345.6 
L 460.8 345.6 
L 460.8 0 
L 0 0 
z
" style="fill:#ffffff;"/>
  </g>
  <g id="axes_1">
   <g id="patch_2">
    <path d="M 69.12 96.768 
L 414.72 96.768 
L 414.72 44.928 
L 69.12 44.928 
z
" style="fill:#ffffff;"/>
   </g>
   <g id="matplotlib.axis_1">
    <g id="xtick_1">
     <g id="line2d_1">
      <defs>
       <path d="M 0 0 
L 0 3.5 
" id="med277d0f14" style="stroke:#000000;stroke-width:0.8;"/>
      </defs>
      <g>
       <use style="stroke:#000000;stroke-width:0.8;" x="74.385683" xlink:href="#med277d0f14" y="96.768"/>
      </g>
     </g>
    </g>
    <g id="xtick_2">
     <g id="line2d_2">
      <g>
       <use style="stroke:#000000;stroke-width:0.8;" x="139.896819" xlink:href="#med277d0f14" y="96.768"/>
      </g>
     </g>
    </g>
    <g id="xtick_3">
     <g id="line2d_3">
      <g>
       <use style="stroke:#000000;stroke-width:0.8;" x="205.407954" xlink:href="#med277d0f14" y="96.768"/>
      </g>
     </g>
    </g>
    <g id="xtick_4">
     <g id="line2d_4">
      <g>
       <use style="stroke:#000000;stroke-width:0.8;" x="270.91909" xlink:href="#med277d0f14" y="96.768"/>
      </g>
     </g>
    </g>
    <g id="xtick_5">
     <g id="line2d_5">
      <g>
       <use style="stroke:#000000;stroke-width:0.8;" x="336.430225" xlink:href="#med277d0f14" y="96.768"/>
      </g>
     </g>
    </g>
    <g id="xtick_6">
     <g id="line2d_6">
      <g>
       <use style="stroke:#000000;stroke-width:0.8;" x="401.941361" xlink:href="#med277d0f14" y="96.768"/>
      </g>
     </g>
    </g>
   </g>
   <g id="matplotlib.axis_2">
    <g id="ytick_1">
     <g id="line2d_7">
      <defs>
       <path d="M 0 0 
L -3.5 0 
" id="m863de28632" style="stroke:#000000;stroke-width:0.8;"/>
      </defs>
      <g>
       <use style="stroke:#000000;stroke-width:0.8;" x="69.12" xlink:href="#m863de28632" y="96.193495"/>
      </g>
     </g>
     <g id="text_1">
      <!-- −2.5 -->
      <defs>
       <path d="M 10.59375 35.5 
L 73.1875 35.5 
L 73.1875 27.203125 
L 10.59375 27.203125 
z
" id="DejaVuSans-2212"/>
       <path d="M 19.1875 8.296875 
L 53.609375 8.296875 
L 53.609375 0 
L 7.328125 0 
L 7.328125 8.296875 
Q 12.9375 14.109375 22.625 23.890625 
Q 32.328125 33.6875 34.8125 36.53125 
Q 39.546875 41.84375 41.421875 45.53125 
Q 43.3125 49.21875 43.3125 52.78125 
Q 43.3125 58.59375 39.234375 62.25 
Q 35.15625 65.921875 28.609375 65.921875 
Q 23.96875 65.921875 18.8125 64.3125 
Q 13.671875 62.703125 7.8125 59.421875 
L 7.8125 69.390625 
Q 13.765625 71.78125 18.9375 73 
Q 24.125 74.21875 28.421875 74.21875 
Q 39.75 74.21875 46.484375 68.546875 
Q 53.21875 62.890625 53.21875 53.421875 
Q 53.21875 48.921875 51.53125 44.890625 
Q 49.859375 40.875 45.40625 35.40625 
Q 44.1875 33.984375 37.640625 27.21875 
Q 31.109375 20.453125 19.1875 8.296875 
z
" id="DejaVuSans-32"/>
       <path d="M 10.6875 12.40625 
L 21 12.40625 
L 21 0 
L 10.6875 0 
z
" id="DejaVuSans-2e"/>
       <path d="M 10.796875 72.90625 
L 49.515625 72.90625 
L 49.515625 64.59375 
L 19.828125 64.59375 
L 19.828125 46.734375 
Q 21.96875 47.46875 24.109375 47.828125 
Q 26.265625 48.1875 28.421875 48.1875 
Q 40.625 48.1875 47.75 41.5 
Q 54.890625 34.8125 54.890625 23.390625 
Q 54.890625 11.625 47.5625 5.09375 
Q 40.234375 -1.421875 26.90625 -1.421875 
Q 22.3125 -1.421875 17.546875 -0.640625 
Q 12.796875 0.140625 7.71875 1.703125 
L 7.71875 11.625 
Q 12.109375 9.234375 16.796875 8.0625 
Q 21.484375 6.890625 26.703125 6.890625 
Q 35.15625 6.890625 40.078125 11.328125 
Q 45.015625 15.765625 45.015625 23.390625 
Q 45.015625 31 40.078125 35.4375 
Q 35.15625 39.890625 26.703125 39.890625 
Q 22.75 39.890625 18.8125 39.015625 
Q 14.890625 38.140625 10.796875 36.28125 
z
" id="DejaVuSans-35"/>
      </defs>
      <g transform="translate(25.695781 101.892323)scale(0.15 -0.15)">
       <use xlink:href="#DejaVuSans-2212"/>
       <use x="83.789062" xlink:href="#DejaVuSans-32"/>
       <use x="147.412109" xlink:href="#DejaVuSans-2e"/>
       <use x="179.199219" xlink:href="#DejaVuSans-35"/>
      </g>
     </g>
    </g>
    <g id="ytick_2">
     <g id="line2d_8">
      <g>
       <use style="stroke:#000000;stroke-width:0.8;" x="69.12" xlink:href="#m863de28632" y="66.938404"/>
      </g>
     </g>
     <g id="text_2">
      <!-- 0.0 -->
      <defs>
       <path d="M 31.78125 66.40625 
Q 24.171875 66.40625 20.328125 58.90625 
Q 16.5 51.421875 16.5 36.375 
Q 16.5 21.390625 20.328125 13.890625 
Q 24.171875 6.390625 31.78125 6.390625 
Q 39.453125 6.390625 43.28125 13.890625 
Q 47.125 21.390625 47.125 36.375 
Q 47.125 51.421875 43.28125 58.90625 
Q 39.453125 66.40625 31.78125 66.40625 
z
M 31.78125 74.21875 
Q 44.046875 74.21875 50.515625 64.515625 
Q 56.984375 54.828125 56.984375 36.375 
Q 56.984375 17.96875 50.515625 8.265625 
Q 44.046875 -1.421875 31.78125 -1.421875 
Q 19.53125 -1.421875 13.0625 8.265625 
Q 6.59375 17.96875 6.59375 36.375 
Q 6.59375 54.828125 13.0625 64.515625 
Q 19.53125 74.21875 31.78125 74.21875 
z
" id="DejaVuSans-30"/>
      </defs>
      <g transform="translate(38.265313 72.637232)scale(0.15 -0.15)">
       <use xlink:href="#DejaVuSans-30"/>
       <use x="63.623047" xlink:href="#DejaVuSans-2e"/>
       <use x="95.410156" xlink:href="#DejaVuSans-30"/>
      </g>
     </g>
    </g>
    <g id="text_3">
     <!-- Studentized -->
     <defs>
      <path d="M 53.515625 70.515625 
L 53.515625 60.890625 
Q 47.90625 63.578125 42.921875 64.890625 
Q 37.9375 66.21875 33.296875 66.21875 
Q 25.25 66.21875 20.875 63.09375 
Q 16.5 59.96875 16.5 54.203125 
Q 16.5 49.359375 19.40625 46.890625 
Q 22.3125 44.4375 30.421875 42.921875 
L 36.375 41.703125 
Q 47.40625 39.59375 52.65625 34.296875 
Q 57.90625 29 57.90625 20.125 
Q 57.90625 9.515625 50.796875 4.046875 
Q 43.703125 -1.421875 29.984375 -1.421875 
Q 24.8125 -1.421875 18.96875 -0.25 
Q 13.140625 0.921875 6.890625 3.21875 
L 6.890625 13.375 
Q 12.890625 10.015625 18.65625 8.296875 
Q 24.421875 6.59375 29.984375 6.59375 
Q 38.421875 6.59375 43.015625 9.90625 
Q 47.609375 13.234375 47.609375 19.390625 
Q 47.609375 24.75 44.3125 27.78125 
Q 41.015625 30.8125 33.5 32.328125 
L 27.484375 33.5 
Q 16.453125 35.6875 11.515625 40.375 
Q 6.59375 45.0625 6.59375 53.421875 
Q 6.59375 63.09375 13.40625 68.65625 
Q 20.21875 74.21875 32.171875 74.21875 
Q 37.3125 74.21875 42.625 73.28125 
Q 47.953125 72.359375 53.515625 70.515625 
z
" id="DejaVuSans-53"/>
      <path d="M 18.3125 70.21875 
L 18.3125 54.6875 
L 36.8125 54.6875 
L 36.8125 47.703125 
L 18.3125 47.703125 
L 18.3125 18.015625 
Q 18.3125 11.328125 20.140625 9.421875 
Q 21.96875 7.515625 27.59375 7.515625 
L 36.8125 7.515625 
L 36.8125 0 
L 27.59375 0 
Q 17.1875 0 13.234375 3.875 
Q 9.28125 7.765625 9.28125 18.015625 
L 9.28125 47.703125 
L 2.6875 47.703125 
L 2.6875 54.6875 
L 9.28125 54.6875 
L 9.28125 70.21875 
z
" id="DejaVuSans-74"/>
      <path d="M 8.5 21.578125 
L 8.5 54.6875 
L 17.484375 54.6875 
L 17.484375 21.921875 
Q 17.484375 14.15625 20.5 10.265625 
Q 23.53125 6.390625 29.59375 6.390625 
Q 36.859375 6.390625 41.078125 11.03125 
Q 45.3125 15.671875 45.3125 23.6875 
L 45.3125 54.6875 
L 54.296875 54.6875 
L 54.296875 0 
L 45.3125 0 
L 45.3125 8.40625 
Q 42.046875 3.421875 37.71875 1 
Q 33.40625 -1.421875 27.6875 -1.421875 
Q 18.265625 -1.421875 13.375 4.4375 
Q 8.5 10.296875 8.5 21.578125 
z
M 31.109375 56 
z
" id="DejaVuSans-75"/>
      <path d="M 45.40625 46.390625 
L 45.40625 75.984375 
L 54.390625 75.984375 
L 54.390625 0 
L 45.40625 0 
L 45.40625 8.203125 
Q 42.578125 3.328125 38.25 0.953125 
Q 33.9375 -1.421875 27.875 -1.421875 
Q 17.96875 -1.421875 11.734375 6.484375 
Q 5.515625 14.40625 5.515625 27.296875 
Q 5.515625 40.1875 11.734375 48.09375 
Q 17.96875 56 27.875 56 
Q 33.9375 56 38.25 53.625 
Q 42.578125 51.265625 45.40625 46.390625 
z
M 14.796875 27.296875 
Q 14.796875 17.390625 18.875 11.75 
Q 22.953125 6.109375 30.078125 6.109375 
Q 37.203125 6.109375 41.296875 11.75 
Q 45.40625 17.390625 45.40625 27.296875 
Q 45.40625 37.203125 41.296875 42.84375 
Q 37.203125 48.484375 30.078125 48.484375 
Q 22.953125 48.484375 18.875 42.84375 
Q 14.796875 37.203125 14.796875 27.296875 
z
" id="DejaVuSans-64"/>
      <path d="M 56.203125 29.59375 
L 56.203125 25.203125 
L 14.890625 25.203125 
Q 15.484375 15.921875 20.484375 11.0625 
Q 25.484375 6.203125 34.421875 6.203125 
Q 39.59375 6.203125 44.453125 7.46875 
Q 49.3125 8.734375 54.109375 11.28125 
L 54.109375 2.78125 
Q 49.265625 0.734375 44.1875 -0.34375 
Q 39.109375 -1.421875 33.890625 -1.421875 
Q 20.796875 -1.421875 13.15625 6.1875 
Q 5.515625 13.8125 5.515625 26.8125 
Q 5.515625 40.234375 12.765625 48.109375 
Q 20.015625 56 32.328125 56 
Q 43.359375 56 49.78125 48.890625 
Q 56.203125 41.796875 56.203125 29.59375 
z
M 47.21875 32.234375 
Q 47.125 39.59375 43.09375 43.984375 
Q 39.0625 48.390625 32.421875 48.390625 
Q 24.90625 48.390625 20.390625 44.140625 
Q 15.875 39.890625 15.1875 32.171875 
z
" id="DejaVuSans-65"/>
      <path d="M 54.890625 33.015625 
L 54.890625 0 
L 45.90625 0 
L 45.90625 32.71875 
Q 45.90625 40.484375 42.875 44.328125 
Q 39.84375 48.1875 33.796875 48.1875 
Q 26.515625 48.1875 22.3125 43.546875 
Q 18.109375 38.921875 18.109375 30.90625 
L 18.109375 0 
L 9.078125 0 
L 9.078125 54.6875 
L 18.109375 54.6875 
L 18.109375 46.1875 
Q 21.34375 51.125 25.703125 53.5625 
Q 30.078125 56 35.796875 56 
Q 45.21875 56 50.046875 50.171875 
Q 54.890625 44.34375 54.890625 33.015625 
z
" id="DejaVuSans-6e"/>
      <path d="M 9.421875 54.6875 
L 18.40625 54.6875 
L 18.40625 0 
L 9.421875 0 
z
M 9.421875 75.984375 
L 18.40625 75.984375 
L 18.40625 64.59375 
L 9.421875 64.59375 
z
" id="DejaVuSans-69"/>
      <path d="M 5.515625 54.6875 
L 48.1875 54.6875 
L 48.1875 46.484375 
L 14.40625 7.171875 
L 48.1875 7.171875 
L 48.1875 0 
L 4.296875 0 
L 4.296875 8.203125 
L 38.09375 47.515625 
L 5.515625 47.515625 
z
" id="DejaVuSans-7a"/>
     </defs>
     <g transform="translate(1.779531 115.768313)rotate(-90)scale(0.15 -0.15)">
      <use xlink:href="#DejaVuSans-53"/>
      <use x="63.476562" xlink:href="#DejaVuSans-74"/>
      <use x="102.685547" xlink:href="#DejaVuSans-75"/>
      <use x="166.064453" xlink:href="#DejaVuSans-64"/>
      <use x="229.541016" xlink:href="#DejaVuSans-65"/>
      <use x="291.064453" xlink:href="#DejaVuSans-6e"/>
      <use x="354.443359" xlink:href="#DejaVuSans-74"/>
      <use x="393.652344" xlink:href="#DejaVuSans-69"/>
      <use x="421.435547" xlink:href="#DejaVuSans-7a"/>
      <use x="473.925781" xlink:href="#DejaVuSans-65"/>
      <use x="535.449219" xlink:href="#DejaVuSans-64"/>
     </g>
     <!-- Residuals -->
     <defs>
      <path d="M 44.390625 34.1875 
Q 47.5625 33.109375 50.5625 29.59375 
Q 53.5625 26.078125 56.59375 19.921875 
L 66.609375 0 
L 56 0 
L 46.6875 18.703125 
Q 43.0625 26.03125 39.671875 28.421875 
Q 36.28125 30.8125 30.421875 30.8125 
L 19.671875 30.8125 
L 19.671875 0 
L 9.8125 0 
L 9.8125 72.90625 
L 32.078125 72.90625 
Q 44.578125 72.90625 50.734375 67.671875 
Q 56.890625 62.453125 56.890625 51.90625 
Q 56.890625 45.015625 53.6875 40.46875 
Q 50.484375 35.9375 44.390625 34.1875 
z
M 19.671875 64.796875 
L 19.671875 38.921875 
L 32.078125 38.921875 
Q 39.203125 38.921875 42.84375 42.21875 
Q 46.484375 45.515625 46.484375 51.90625 
Q 46.484375 58.296875 42.84375 61.546875 
Q 39.203125 64.796875 32.078125 64.796875 
z
" id="DejaVuSans-52"/>
      <path d="M 44.28125 53.078125 
L 44.28125 44.578125 
Q 40.484375 46.53125 36.375 47.5 
Q 32.28125 48.484375 27.875 48.484375 
Q 21.1875 48.484375 17.84375 46.4375 
Q 14.5 44.390625 14.5 40.28125 
Q 14.5 37.15625 16.890625 35.375 
Q 19.28125 33.59375 26.515625 31.984375 
L 29.59375 31.296875 
Q 39.15625 29.25 43.1875 25.515625 
Q 47.21875 21.78125 47.21875 15.09375 
Q 47.21875 7.46875 41.1875 3.015625 
Q 35.15625 -1.421875 24.609375 -1.421875 
Q 20.21875 -1.421875 15.453125 -0.5625 
Q 10.6875 0.296875 5.421875 2 
L 5.421875 11.28125 
Q 10.40625 8.6875 15.234375 7.390625 
Q 20.0625 6.109375 24.8125 6.109375 
Q 31.15625 6.109375 34.5625 8.28125 
Q 37.984375 10.453125 37.984375 14.40625 
Q 37.984375 18.0625 35.515625 20.015625 
Q 33.0625 21.96875 24.703125 23.78125 
L 21.578125 24.515625 
Q 13.234375 26.265625 9.515625 29.90625 
Q 5.8125 33.546875 5.8125 39.890625 
Q 5.8125 47.609375 11.28125 51.796875 
Q 16.75 56 26.8125 56 
Q 31.78125 56 36.171875 55.265625 
Q 40.578125 54.546875 44.28125 53.078125 
z
" id="DejaVuSans-73"/>
      <path d="M 34.28125 27.484375 
Q 23.390625 27.484375 19.1875 25 
Q 14.984375 22.515625 14.984375 16.5 
Q 14.984375 11.71875 18.140625 8.90625 
Q 21.296875 6.109375 26.703125 6.109375 
Q 34.1875 6.109375 38.703125 11.40625 
Q 43.21875 16.703125 43.21875 25.484375 
L 43.21875 27.484375 
z
M 52.203125 31.203125 
L 52.203125 0 
L 43.21875 0 
L 43.21875 8.296875 
Q 40.140625 3.328125 35.546875 0.953125 
Q 30.953125 -1.421875 24.3125 -1.421875 
Q 15.921875 -1.421875 10.953125 3.296875 
Q 6 8.015625 6 15.921875 
Q 6 25.140625 12.171875 29.828125 
Q 18.359375 34.515625 30.609375 34.515625 
L 43.21875 34.515625 
L 43.21875 35.40625 
Q 43.21875 41.609375 39.140625 45 
Q 35.0625 48.390625 27.6875 48.390625 
Q 23 48.390625 18.546875 47.265625 
Q 14.109375 46.140625 10.015625 43.890625 
L 10.015625 52.203125 
Q 14.9375 54.109375 19.578125 55.046875 
Q 24.21875 56 28.609375 56 
Q 40.484375 56 46.34375 49.84375 
Q 52.203125 43.703125 52.203125 31.203125 
z
" id="DejaVuSans-61"/>
      <path d="M 9.421875 75.984375 
L 18.40625 75.984375 
L 18.40625 0 
L 9.421875 0 
z
" id="DejaVuSans-6c"/>
     </defs>
     <g transform="translate(18.57625 106.761281)rotate(-90)scale(0.15 -0.15)">
      <use xlink:href="#DejaVuSans-52"/>
      <use x="69.419922" xlink:href="#DejaVuSans-65"/>
      <use x="130.943359" xlink:href="#DejaVuSans-73"/>
      <use x="183.042969" xlink:href="#DejaVuSans-69"/>
      <use x="210.826172" xlink:href="#DejaVuSans-64"/>
      <use x="274.302734" xlink:href="#DejaVuSans-75"/>
      <use x="337.681641" xlink:href="#DejaVuSans-61"/>
      <use x="398.960938" xlink:href="#DejaVuSans-6c"/>
      <use x="426.744141" xlink:href="#DejaVuSans-73"/>
     </g>
    </g>
   </g>
   <g id="LineCollection_1">
    <path clip-path="url(#pffa58c538e)" d="M 81.92 106.550036 
L 81.92 83.145964 
" style="fill:none;stroke:#0000ff;stroke-width:1.5;"/>
    <path clip-path="url(#pffa58c538e)" d="M 87.107583 106.50124 
L 87.107583 83.097168 
" style="fill:none;stroke:#0000ff;stroke-width:1.5;"/>
    <path clip-path="url(#pffa58c538e)" d="M 98.547057 98.141969 
L 98.547057 74.737897 
" style="fill:none;stroke:#0000ff;stroke-width:1.5;"/>
    <path clip-path="url(#pffa58c538e)" d="M 109.667376 90.442097 
L 109.667376 67.038024 
" style="fill:none;stroke:#0000ff;stroke-width:1.5;"/>
    <path clip-path="url(#pffa58c538e)" d="M 111.869956 94.41705 
L 111.869956 71.012978 
" style="fill:none;stroke:#0000ff;stroke-width:1.5;"/>
    <path clip-path="url(#pffa58c538e)" d="M 124.493139 85.466708 
L 124.493139 62.062635 
" style="fill:none;stroke:#0000ff;stroke-width:1.5;"/>
    <path clip-path="url(#pffa58c538e)" d="M 132.778741 81.740262 
L 132.778741 58.336189 
" style="fill:none;stroke:#0000ff;stroke-width:1.5;"/>
    <path clip-path="url(#pffa58c538e)" d="M 134.050284 86.956655 
L 134.050284 63.552582 
" style="fill:none;stroke:#0000ff;stroke-width:1.5;"/>
    <path clip-path="url(#pffa58c538e)" d="M 149.36922 74.641501 
L 149.36922 51.237428 
" style="fill:none;stroke:#0000ff;stroke-width:1.5;"/>
    <path clip-path="url(#pffa58c538e)" d="M 152.657842 76.647217 
L 152.657842 53.243144 
" style="fill:none;stroke:#0000ff;stroke-width:1.5;"/>
    <path clip-path="url(#pffa58c538e)" d="M 164.762111 68.180208 
L 164.762111 44.776135 
" style="fill:none;stroke:#0000ff;stroke-width:1.5;"/>
    <path clip-path="url(#pffa58c538e)" d="M 166.734612 71.712112 
L 166.734612 48.308039 
" style="fill:none;stroke:#0000ff;stroke-width:1.5;"/>
    <path clip-path="url(#pffa58c538e)" d="M 169.037702 74.363025 
L 169.037702 50.958952 
" style="fill:none;stroke:#0000ff;stroke-width:1.5;"/>
    <path clip-path="url(#pffa58c538e)" d="M 179.349565 67.936569 
L 179.349565 44.532497 
" style="fill:none;stroke:#0000ff;stroke-width:1.5;"/>
    <path clip-path="url(#pffa58c538e)" d="M 183.086338 69.549819 
L 183.086338 46.145747 
" style="fill:none;stroke:#0000ff;stroke-width:1.5;"/>
    <path clip-path="url(#pffa58c538e)" d="M 189.894417 68.586009 
L 189.894417 45.181936 
" style="fill:none;stroke:#0000ff;stroke-width:1.5;"/>
    <path clip-path="url(#pffa58c538e)" d="M 204.007928 60.71211 
L 204.007928 37.308038 
" style="fill:none;stroke:#0000ff;stroke-width:1.5;"/>
    <path clip-path="url(#pffa58c538e)" d="M 207.889765 64.960157 
L 207.889765 41.556084 
" style="fill:none;stroke:#0000ff;stroke-width:1.5;"/>
    <path clip-path="url(#pffa58c538e)" d="M 214.18941 67.277497 
L 214.18941 43.873424 
" style="fill:none;stroke:#0000ff;stroke-width:1.5;"/>
    <path clip-path="url(#pffa58c538e)" d="M 216.089521 74.847013 
L 216.089521 51.44294 
" style="fill:none;stroke:#0000ff;stroke-width:1.5;"/>
    <path clip-path="url(#pffa58c538e)" d="M 238.851788 58.550036 
L 238.851788 35.145964 
" style="fill:none;stroke:#0000ff;stroke-width:1.5;"/>
    <path clip-path="url(#pffa58c538e)" d="M 244.668647 62.404137 
L 244.668647 39.000064 
" style="fill:none;stroke:#0000ff;stroke-width:1.5;"/>
    <path clip-path="url(#pffa58c538e)" d="M 251.208972 64.217101 
L 251.208972 40.813029 
" style="fill:none;stroke:#0000ff;stroke-width:1.5;"/>
    <path clip-path="url(#pffa58c538e)" d="M 262.522305 61.597474 
L 262.522305 38.193401 
" style="fill:none;stroke:#0000ff;stroke-width:1.5;"/>
    <path clip-path="url(#pffa58c538e)" d="M 266.488277 67.680875 
L 266.488277 44.276802 
" style="fill:none;stroke:#0000ff;stroke-width:1.5;"/>
    <path clip-path="url(#pffa58c538e)" d="M 274.825526 68.093047 
L 274.825526 44.688975 
" style="fill:none;stroke:#0000ff;stroke-width:1.5;"/>
    <path clip-path="url(#pffa58c538e)" d="M 284.854578 66.257242 
L 284.854578 42.853169 
" style="fill:none;stroke:#0000ff;stroke-width:1.5;"/>
    <path clip-path="url(#pffa58c538e)" d="M 292.235173 67.794781 
L 292.235173 44.390709 
" style="fill:none;stroke:#0000ff;stroke-width:1.5;"/>
    <path clip-path="url(#pffa58c538e)" d="M 300.755505 67.775531 
L 300.755505 44.371459 
" style="fill:none;stroke:#0000ff;stroke-width:1.5;"/>
    <path clip-path="url(#pffa58c538e)" d="M 305.040291 71.251009 
L 305.040291 47.846937 
" style="fill:none;stroke:#0000ff;stroke-width:1.5;"/>
    <path clip-path="url(#pffa58c538e)" d="M 311.879114 71.390516 
L 311.879114 47.986444 
" style="fill:none;stroke:#0000ff;stroke-width:1.5;"/>
    <path clip-path="url(#pffa58c538e)" d="M 319.360142 70.750958 
L 319.360142 47.346886 
" style="fill:none;stroke:#0000ff;stroke-width:1.5;"/>
    <path clip-path="url(#pffa58c538e)" d="M 320.007317 77.061701 
L 320.007317 53.657628 
" style="fill:none;stroke:#0000ff;stroke-width:1.5;"/>
    <path clip-path="url(#pffa58c538e)" d="M 327.52392 75.499104 
L 327.52392 52.095031 
" style="fill:none;stroke:#0000ff;stroke-width:1.5;"/>
    <path clip-path="url(#pffa58c538e)" d="M 334.735323 74.457241 
L 334.735323 51.053169 
" style="fill:none;stroke:#0000ff;stroke-width:1.5;"/>
    <path clip-path="url(#pffa58c538e)" d="M 338.310142 77.435006 
L 338.310142 54.030933 
" style="fill:none;stroke:#0000ff;stroke-width:1.5;"/>
    <path clip-path="url(#pffa58c538e)" d="M 340.504611 81.652852 
L 340.504611 58.24878 
" style="fill:none;stroke:#0000ff;stroke-width:1.5;"/>
    <path clip-path="url(#pffa58c538e)" d="M 344.273581 83.270376 
L 344.273581 59.866303 
" style="fill:none;stroke:#0000ff;stroke-width:1.5;"/>
    <path clip-path="url(#pffa58c538e)" d="M 351.959614 81.097186 
L 351.959614 57.693114 
" style="fill:none;stroke:#0000ff;stroke-width:1.5;"/>
    <path clip-path="url(#pffa58c538e)" d="M 353.405201 85.738927 
L 353.405201 62.334855 
" style="fill:none;stroke:#0000ff;stroke-width:1.5;"/>
    <path clip-path="url(#pffa58c538e)" d="M 373.340811 70.317347 
L 373.340811 46.913274 
" style="fill:none;stroke:#0000ff;stroke-width:1.5;"/>
    <path clip-path="url(#pffa58c538e)" d="M 368.328566 83.091235 
L 368.328566 59.687162 
" style="fill:none;stroke:#0000ff;stroke-width:1.5;"/>
    <path clip-path="url(#pffa58c538e)" d="M 370.276591 88.24996 
L 370.276591 64.845888 
" style="fill:none;stroke:#0000ff;stroke-width:1.5;"/>
    <path clip-path="url(#pffa58c538e)" d="M 376.913596 88.612784 
L 376.913596 65.208712 
" style="fill:none;stroke:#0000ff;stroke-width:1.5;"/>
    <path clip-path="url(#pffa58c538e)" d="M 380.299388 91.732231 
L 380.299388 68.328159 
" style="fill:none;stroke:#0000ff;stroke-width:1.5;"/>
    <path clip-path="url(#pffa58c538e)" d="M 383.236231 95.009128 
L 383.236231 71.605056 
" style="fill:none;stroke:#0000ff;stroke-width:1.5;"/>
    <path clip-path="url(#pffa58c538e)" d="M 391.271112 91.701988 
L 391.271112 68.297916 
" style="fill:none;stroke:#0000ff;stroke-width:1.5;"/>
    <path clip-path="url(#pffa58c538e)" d="M 392.235061 96.562649 
L 392.235061 73.158576 
" style="fill:none;stroke:#0000ff;stroke-width:1.5;"/>
    <path clip-path="url(#pffa58c538e)" d="M 398.879363 95.038082 
L 398.879363 71.63401 
" style="fill:none;stroke:#0000ff;stroke-width:1.5;"/>
    <path clip-path="url(#pffa58c538e)" d="M 401.92 96.884211 
L 401.92 73.480138 
" style="fill:none;stroke:#0000ff;stroke-width:1.5;"/>
   </g>
   <g id="line2d_9">
    <path clip-path="url(#pffa58c538e)" d="M 81.92 66.938404 
L 401.92 66.938404 
" style="fill:none;stroke:#ff0000;stroke-linecap:square;stroke-width:1.5;"/>
   </g>
   <g id="line2d_10">
    <defs>
     <path d="M -3 0 
L 3 0 
M 0 3 
L 0 -3 
" id="md3dbc29506" style="stroke:#0000ff;"/>
    </defs>
    <g clip-path="url(#pffa58c538e)">
     <use style="fill:#0000ff;stroke:#0000ff;" x="81.92" xlink:href="#md3dbc29506" y="94.848"/>
     <use style="fill:#0000ff;stroke:#0000ff;" x="87.107583" xlink:href="#md3dbc29506" y="94.799204"/>
     <use style="fill:#0000ff;stroke:#0000ff;" x="98.547057" xlink:href="#md3dbc29506" y="86.439933"/>
     <use style="fill:#0000ff;stroke:#0000ff;" x="109.667376" xlink:href="#md3dbc29506" y="78.740061"/>
     <use style="fill:#0000ff;stroke:#0000ff;" x="111.869956" xlink:href="#md3dbc29506" y="82.715014"/>
     <use style="fill:#0000ff;stroke:#0000ff;" x="124.493139" xlink:href="#md3dbc29506" y="73.764671"/>
     <use style="fill:#0000ff;stroke:#0000ff;" x="132.778741" xlink:href="#md3dbc29506" y="70.038226"/>
     <use style="fill:#0000ff;stroke:#0000ff;" x="134.050284" xlink:href="#md3dbc29506" y="75.254619"/>
     <use style="fill:#0000ff;stroke:#0000ff;" x="149.36922" xlink:href="#md3dbc29506" y="62.939465"/>
     <use style="fill:#0000ff;stroke:#0000ff;" x="152.657842" xlink:href="#md3dbc29506" y="64.94518"/>
     <use style="fill:#0000ff;stroke:#0000ff;" x="164.762111" xlink:href="#md3dbc29506" y="56.478172"/>
     <use style="fill:#0000ff;stroke:#0000ff;" x="166.734612" xlink:href="#md3dbc29506" y="60.010076"/>
     <use style="fill:#0000ff;stroke:#0000ff;" x="169.037702" xlink:href="#md3dbc29506" y="62.660988"/>
     <use style="fill:#0000ff;stroke:#0000ff;" x="179.349565" xlink:href="#md3dbc29506" y="56.234533"/>
     <use style="fill:#0000ff;stroke:#0000ff;" x="183.086338" xlink:href="#md3dbc29506" y="57.847783"/>
     <use style="fill:#0000ff;stroke:#0000ff;" x="189.894417" xlink:href="#md3dbc29506" y="56.883972"/>
     <use style="fill:#0000ff;stroke:#0000ff;" x="204.007928" xlink:href="#md3dbc29506" y="49.010074"/>
     <use style="fill:#0000ff;stroke:#0000ff;" x="207.889765" xlink:href="#md3dbc29506" y="53.25812"/>
     <use style="fill:#0000ff;stroke:#0000ff;" x="214.18941" xlink:href="#md3dbc29506" y="55.57546"/>
     <use style="fill:#0000ff;stroke:#0000ff;" x="216.089521" xlink:href="#md3dbc29506" y="63.144977"/>
     <use style="fill:#0000ff;stroke:#0000ff;" x="238.851788" xlink:href="#md3dbc29506" y="46.848"/>
     <use style="fill:#0000ff;stroke:#0000ff;" x="244.668647" xlink:href="#md3dbc29506" y="50.702101"/>
     <use style="fill:#0000ff;stroke:#0000ff;" x="251.208972" xlink:href="#md3dbc29506" y="52.515065"/>
     <use style="fill:#0000ff;stroke:#0000ff;" x="262.522305" xlink:href="#md3dbc29506" y="49.895438"/>
     <use style="fill:#0000ff;stroke:#0000ff;" x="266.488277" xlink:href="#md3dbc29506" y="55.978838"/>
     <use style="fill:#0000ff;stroke:#0000ff;" x="274.825526" xlink:href="#md3dbc29506" y="56.391011"/>
     <use style="fill:#0000ff;stroke:#0000ff;" x="284.854578" xlink:href="#md3dbc29506" y="54.555206"/>
     <use style="fill:#0000ff;stroke:#0000ff;" x="292.235173" xlink:href="#md3dbc29506" y="56.092745"/>
     <use style="fill:#0000ff;stroke:#0000ff;" x="300.755505" xlink:href="#md3dbc29506" y="56.073495"/>
     <use style="fill:#0000ff;stroke:#0000ff;" x="305.040291" xlink:href="#md3dbc29506" y="59.548973"/>
     <use style="fill:#0000ff;stroke:#0000ff;" x="311.879114" xlink:href="#md3dbc29506" y="59.68848"/>
     <use style="fill:#0000ff;stroke:#0000ff;" x="319.360142" xlink:href="#md3dbc29506" y="59.048922"/>
     <use style="fill:#0000ff;stroke:#0000ff;" x="320.007317" xlink:href="#md3dbc29506" y="65.359664"/>
     <use style="fill:#0000ff;stroke:#0000ff;" x="327.52392" xlink:href="#md3dbc29506" y="63.797068"/>
     <use style="fill:#0000ff;stroke:#0000ff;" x="334.735323" xlink:href="#md3dbc29506" y="62.755205"/>
     <use style="fill:#0000ff;stroke:#0000ff;" x="338.310142" xlink:href="#md3dbc29506" y="65.73297"/>
     <use style="fill:#0000ff;stroke:#0000ff;" x="340.504611" xlink:href="#md3dbc29506" y="69.950816"/>
     <use style="fill:#0000ff;stroke:#0000ff;" x="344.273581" xlink:href="#md3dbc29506" y="71.56834"/>
     <use style="fill:#0000ff;stroke:#0000ff;" x="351.959614" xlink:href="#md3dbc29506" y="69.39515"/>
     <use style="fill:#0000ff;stroke:#0000ff;" x="353.405201" xlink:href="#md3dbc29506" y="74.036891"/>
     <use style="fill:#0000ff;stroke:#0000ff;" x="373.340811" xlink:href="#md3dbc29506" y="58.615311"/>
     <use style="fill:#0000ff;stroke:#0000ff;" x="368.328566" xlink:href="#md3dbc29506" y="71.389199"/>
     <use style="fill:#0000ff;stroke:#0000ff;" x="370.276591" xlink:href="#md3dbc29506" y="76.547924"/>
     <use style="fill:#0000ff;stroke:#0000ff;" x="376.913596" xlink:href="#md3dbc29506" y="76.910748"/>
     <use style="fill:#0000ff;stroke:#0000ff;" x="380.299388" xlink:href="#md3dbc29506" y="80.030195"/>
     <use style="fill:#0000ff;stroke:#0000ff;" x="383.236231" xlink:href="#md3dbc29506" y="83.307092"/>
     <use style="fill:#0000ff;stroke:#0000ff;" x="391.271112" xlink:href="#md3dbc29506" y="79.999952"/>
     <use style="fill:#0000ff;stroke:#0000ff;" x="392.235061" xlink:href="#md3dbc29506" y="84.860613"/>
     <use style="fill:#0000ff;stroke:#0000ff;" x="398.879363" xlink:href="#md3dbc29506" y="83.336046"/>
     <use style="fill:#0000ff;stroke:#0000ff;" x="401.92" xlink:href="#md3dbc29506" y="85.182174"/>
    </g>
   </g>
   <g id="patch_3">
    <path d="M 69.12 96.768 
L 69.12 44.928 
" style="fill:none;stroke:#000000;stroke-linecap:square;stroke-linejoin:miter;stroke-width:0.8;"/>
   </g>
   <g id="patch_4">
    <path d="M 414.72 96.768 
L 414.72 44.928 
" style="fill:none;stroke:#000000;stroke-linecap:square;stroke-linejoin:miter;stroke-width:0.8;"/>
   </g>
   <g id="patch_5">
    <path d="M 69.12 96.768 
L 414.72 96.768 
" style="fill:none;stroke:#000000;stroke-linecap:square;stroke-linejoin:miter;stroke-width:0.8;"/>
   </g>
   <g id="patch_6">
    <path d="M 69.12 44.928 
L 414.72 44.928 
" style="fill:none;stroke:#000000;stroke-linecap:square;stroke-linejoin:miter;stroke-width:0.8;"/>
   </g>
   <g id="text_4">
    <!-- Function (0/0): y = c*exp(d/x) -->
    <defs>
     <path d="M 9.8125 72.90625 
L 51.703125 72.90625 
L 51.703125 64.59375 
L 19.671875 64.59375 
L 19.671875 43.109375 
L 48.578125 43.109375 
L 48.578125 34.8125 
L 19.671875 34.8125 
L 19.671875 0 
L 9.8125 0 
z
" id="DejaVuSans-46"/>
     <path d="M 48.78125 52.59375 
L 48.78125 44.1875 
Q 44.96875 46.296875 41.140625 47.34375 
Q 37.3125 48.390625 33.40625 48.390625 
Q 24.65625 48.390625 19.8125 42.84375 
Q 14.984375 37.3125 14.984375 27.296875 
Q 14.984375 17.28125 19.8125 11.734375 
Q 24.65625 6.203125 33.40625 6.203125 
Q 37.3125 6.203125 41.140625 7.25 
Q 44.96875 8.296875 48.78125 10.40625 
L 48.78125 2.09375 
Q 45.015625 0.34375 40.984375 -0.53125 
Q 36.96875 -1.421875 32.421875 -1.421875 
Q 20.0625 -1.421875 12.78125 6.34375 
Q 5.515625 14.109375 5.515625 27.296875 
Q 5.515625 40.671875 12.859375 48.328125 
Q 20.21875 56 33.015625 56 
Q 37.15625 56 41.109375 55.140625 
Q 45.0625 54.296875 48.78125 52.59375 
z
" id="DejaVuSans-63"/>
     <path d="M 30.609375 48.390625 
Q 23.390625 48.390625 19.1875 42.75 
Q 14.984375 37.109375 14.984375 27.296875 
Q 14.984375 17.484375 19.15625 11.84375 
Q 23.34375 6.203125 30.609375 6.203125 
Q 37.796875 6.203125 41.984375 11.859375 
Q 46.1875 17.53125 46.1875 27.296875 
Q 46.1875 37.015625 41.984375 42.703125 
Q 37.796875 48.390625 30.609375 48.390625 
z
M 30.609375 56 
Q 42.328125 56 49.015625 48.375 
Q 55.71875 40.765625 55.71875 27.296875 
Q 55.71875 13.875 49.015625 6.21875 
Q 42.328125 -1.421875 30.609375 -1.421875 
Q 18.84375 -1.421875 12.171875 6.21875 
Q 5.515625 13.875 5.515625 27.296875 
Q 5.515625 40.765625 12.171875 48.375 
Q 18.84375 56 30.609375 56 
z
" id="DejaVuSans-6f"/>
     <path id="DejaVuSans-20"/>
     <path d="M 31 75.875 
Q 24.46875 64.65625 21.28125 53.65625 
Q 18.109375 42.671875 18.109375 31.390625 
Q 18.109375 20.125 21.3125 9.0625 
Q 24.515625 -2 31 -13.1875 
L 23.1875 -13.1875 
Q 15.875 -1.703125 12.234375 9.375 
Q 8.59375 20.453125 8.59375 31.390625 
Q 8.59375 42.28125 12.203125 53.3125 
Q 15.828125 64.359375 23.1875 75.875 
z
" id="DejaVuSans-28"/>
     <path d="M 25.390625 72.90625 
L 33.6875 72.90625 
L 8.296875 -9.28125 
L 0 -9.28125 
z
" id="DejaVuSans-2f"/>
     <path d="M 8.015625 75.875 
L 15.828125 75.875 
Q 23.140625 64.359375 26.78125 53.3125 
Q 30.421875 42.28125 30.421875 31.390625 
Q 30.421875 20.453125 26.78125 9.375 
Q 23.140625 -1.703125 15.828125 -13.1875 
L 8.015625 -13.1875 
Q 14.5 -2 17.703125 9.0625 
Q 20.90625 20.125 20.90625 31.390625 
Q 20.90625 42.671875 17.703125 53.65625 
Q 14.5 64.65625 8.015625 75.875 
z
" id="DejaVuSans-29"/>
     <path d="M 11.71875 12.40625 
L 22.015625 12.40625 
L 22.015625 0 
L 11.71875 0 
z
M 11.71875 51.703125 
L 22.015625 51.703125 
L 22.015625 39.3125 
L 11.71875 39.3125 
z
" id="DejaVuSans-3a"/>
     <path d="M 32.171875 -5.078125 
Q 28.375 -14.84375 24.75 -17.8125 
Q 21.140625 -20.796875 15.09375 -20.796875 
L 7.90625 -20.796875 
L 7.90625 -13.28125 
L 13.1875 -13.28125 
Q 16.890625 -13.28125 18.9375 -11.515625 
Q 21 -9.765625 23.484375 -3.21875 
L 25.09375 0.875 
L 2.984375 54.6875 
L 12.5 54.6875 
L 29.59375 11.921875 
L 46.6875 54.6875 
L 56.203125 54.6875 
z
" id="DejaVuSans-79"/>
     <path d="M 10.59375 45.40625 
L 73.1875 45.40625 
L 73.1875 37.203125 
L 10.59375 37.203125 
z
M 10.59375 25.484375 
L 73.1875 25.484375 
L 73.1875 17.1875 
L 10.59375 17.1875 
z
" id="DejaVuSans-3d"/>
     <path d="M 47.015625 60.890625 
L 29.5 51.421875 
L 47.015625 41.890625 
L 44.1875 37.109375 
L 27.78125 47.015625 
L 27.78125 28.609375 
L 22.21875 28.609375 
L 22.21875 47.015625 
L 5.8125 37.109375 
L 2.984375 41.890625 
L 20.515625 51.421875 
L 2.984375 60.890625 
L 5.8125 65.71875 
L 22.21875 55.8125 
L 22.21875 74.21875 
L 27.78125 74.21875 
L 27.78125 55.8125 
L 44.1875 65.71875 
z
" id="DejaVuSans-2a"/>
     <path d="M 54.890625 54.6875 
L 35.109375 28.078125 
L 55.90625 0 
L 45.3125 0 
L 29.390625 21.484375 
L 13.484375 0 
L 2.875 0 
L 24.125 28.609375 
L 4.6875 54.6875 
L 15.28125 54.6875 
L 29.78125 35.203125 
L 44.28125 54.6875 
z
" id="DejaVuSans-78"/>
     <path d="M 18.109375 8.203125 
L 18.109375 -20.796875 
L 9.078125 -20.796875 
L 9.078125 54.6875 
L 18.109375 54.6875 
L 18.109375 46.390625 
Q 20.953125 51.265625 25.265625 53.625 
Q 29.59375 56 35.59375 56 
Q 45.5625 56 51.78125 48.09375 
Q 58.015625 40.1875 58.015625 27.296875 
Q 58.015625 14.40625 51.78125 6.484375 
Q 45.5625 -1.421875 35.59375 -1.421875 
Q 29.59375 -1.421875 25.265625 0.953125 
Q 20.953125 3.328125 18.109375 8.203125 
z
M 48.6875 27.296875 
Q 48.6875 37.203125 44.609375 42.84375 
Q 40.53125 48.484375 33.40625 48.484375 
Q 26.265625 48.484375 22.1875 42.84375 
Q 18.109375 37.203125 18.109375 27.296875 
Q 18.109375 17.390625 22.1875 11.75 
Q 26.265625 6.109375 33.40625 6.109375 
Q 40.53125 6.109375 44.609375 11.75 
Q 48.6875 17.390625 48.6875 27.296875 
z
" id="DejaVuSans-70"/>
    </defs>
    <g transform="translate(69.12 25.508312)scale(0.1 -0.1)">
     <use xlink:href="#DejaVuSans-46"/>
     <use x="57.441406" xlink:href="#DejaVuSans-75"/>
     <use x="120.820312" xlink:href="#DejaVuSans-6e"/>
     <use x="184.199219" xlink:href="#DejaVuSans-63"/>
     <use x="239.179688" xlink:href="#DejaVuSans-74"/>
     <use x="278.388672" xlink:href="#DejaVuSans-69"/>
     <use x="306.171875" xlink:href="#DejaVuSans-6f"/>
     <use x="367.353516" xlink:href="#DejaVuSans-6e"/>
     <use x="430.732422" xlink:href="#DejaVuSans-20"/>
     <use x="462.519531" xlink:href="#DejaVuSans-28"/>
     <use x="501.533203" xlink:href="#DejaVuSans-30"/>
     <use x="565.15625" xlink:href="#DejaVuSans-2f"/>
     <use x="598.847656" xlink:href="#DejaVuSans-30"/>
     <use x="662.470703" xlink:href="#DejaVuSans-29"/>
     <use x="701.484375" xlink:href="#DejaVuSans-3a"/>
     <use x="735.175781" xlink:href="#DejaVuSans-20"/>
     <use x="766.962891" xlink:href="#DejaVuSans-79"/>
     <use x="826.142578" xlink:href="#DejaVuSans-20"/>
     <use x="857.929688" xlink:href="#DejaVuSans-3d"/>
     <use x="941.71875" xlink:href="#DejaVuSans-20"/>
     <use x="973.505859" xlink:href="#DejaVuSans-63"/>
     <use x="1028.486328" xlink:href="#DejaVuSans-2a"/>
     <use x="1078.486328" xlink:href="#DejaVuSans-65"/>
     <use x="1139.994141" xlink:href="#DejaVuSans-78"/>
     <use x="1199.173828" xlink:href="#DejaVuSans-70"/>
     <use x="1262.650391" xlink:href="#DejaVuSans-28"/>
     <use x="1301.664062" xlink:href="#DejaVuSans-64"/>
     <use x="1365.140625" xlink:href="#DejaVuSans-2f"/>
     <use x="1398.832031" xlink:href="#DejaVuSans-78"/>
     <use x="1458.011719" xlink:href="#DejaVuSans-29"/>
    </g>
    <!-- Fit: c=0.01$\pm$0.0012, d=3018.0$\pm$43.0, $\chi^2_r$=1.14 (48 DOF) -->
    <defs>
     <path d="M 12.40625 8.296875 
L 28.515625 8.296875 
L 28.515625 63.921875 
L 10.984375 60.40625 
L 10.984375 69.390625 
L 28.421875 72.90625 
L 38.28125 72.90625 
L 38.28125 8.296875 
L 54.390625 8.296875 
L 54.390625 0 
L 12.40625 0 
z
" id="DejaVuSans-31"/>
     <path d="M 46 62.703125 
L 46 43.796875 
L 73.1875 43.796875 
L 73.1875 35.5 
L 46 35.5 
L 46 16.609375 
L 37.796875 16.609375 
L 37.796875 35.5 
L 10.59375 35.5 
L 10.59375 43.796875 
L 37.796875 43.796875 
L 37.796875 62.703125 
z
M 10.59375 8.296875 
L 73.1875 8.296875 
L 73.1875 0 
L 10.59375 0 
z
" id="DejaVuSans-b1"/>
     <path d="M 11.71875 12.40625 
L 22.015625 12.40625 
L 22.015625 4 
L 14.015625 -11.625 
L 7.71875 -11.625 
L 11.71875 4 
z
" id="DejaVuSans-2c"/>
     <path d="M 40.578125 39.3125 
Q 47.65625 37.796875 51.625 33 
Q 55.609375 28.21875 55.609375 21.1875 
Q 55.609375 10.40625 48.1875 4.484375 
Q 40.765625 -1.421875 27.09375 -1.421875 
Q 22.515625 -1.421875 17.65625 -0.515625 
Q 12.796875 0.390625 7.625 2.203125 
L 7.625 11.71875 
Q 11.71875 9.328125 16.59375 8.109375 
Q 21.484375 6.890625 26.8125 6.890625 
Q 36.078125 6.890625 40.9375 10.546875 
Q 45.796875 14.203125 45.796875 21.1875 
Q 45.796875 27.640625 41.28125 31.265625 
Q 36.765625 34.90625 28.71875 34.90625 
L 20.21875 34.90625 
L 20.21875 43.015625 
L 29.109375 43.015625 
Q 36.375 43.015625 40.234375 45.921875 
Q 44.09375 48.828125 44.09375 54.296875 
Q 44.09375 59.90625 40.109375 62.90625 
Q 36.140625 65.921875 28.71875 65.921875 
Q 24.65625 65.921875 20.015625 65.03125 
Q 15.375 64.15625 9.8125 62.3125 
L 9.8125 71.09375 
Q 15.4375 72.65625 20.34375 73.4375 
Q 25.25 74.21875 29.59375 74.21875 
Q 40.828125 74.21875 47.359375 69.109375 
Q 53.90625 64.015625 53.90625 55.328125 
Q 53.90625 49.265625 50.4375 45.09375 
Q 46.96875 40.921875 40.578125 39.3125 
z
" id="DejaVuSans-33"/>
     <path d="M 31.78125 34.625 
Q 24.75 34.625 20.71875 30.859375 
Q 16.703125 27.09375 16.703125 20.515625 
Q 16.703125 13.921875 20.71875 10.15625 
Q 24.75 6.390625 31.78125 6.390625 
Q 38.8125 6.390625 42.859375 10.171875 
Q 46.921875 13.96875 46.921875 20.515625 
Q 46.921875 27.09375 42.890625 30.859375 
Q 38.875 34.625 31.78125 34.625 
z
M 21.921875 38.8125 
Q 15.578125 40.375 12.03125 44.71875 
Q 8.5 49.078125 8.5 55.328125 
Q 8.5 64.0625 14.71875 69.140625 
Q 20.953125 74.21875 31.78125 74.21875 
Q 42.671875 74.21875 48.875 69.140625 
Q 55.078125 64.0625 55.078125 55.328125 
Q 55.078125 49.078125 51.53125 44.71875 
Q 48 40.375 41.703125 38.8125 
Q 48.828125 37.15625 52.796875 32.3125 
Q 56.78125 27.484375 56.78125 20.515625 
Q 56.78125 9.90625 50.3125 4.234375 
Q 43.84375 -1.421875 31.78125 -1.421875 
Q 19.734375 -1.421875 13.25 4.234375 
Q 6.78125 9.90625 6.78125 20.515625 
Q 6.78125 27.484375 10.78125 32.3125 
Q 14.796875 37.15625 21.921875 38.8125 
z
M 18.3125 54.390625 
Q 18.3125 48.734375 21.84375 45.5625 
Q 25.390625 42.390625 31.78125 42.390625 
Q 38.140625 42.390625 41.71875 45.5625 
Q 45.3125 48.734375 45.3125 54.390625 
Q 45.3125 60.0625 41.71875 63.234375 
Q 38.140625 66.40625 31.78125 66.40625 
Q 25.390625 66.40625 21.84375 63.234375 
Q 18.3125 60.0625 18.3125 54.390625 
z
" id="DejaVuSans-38"/>
     <path d="M 37.796875 64.3125 
L 12.890625 25.390625 
L 37.796875 25.390625 
z
M 35.203125 72.90625 
L 47.609375 72.90625 
L 47.609375 25.390625 
L 58.015625 25.390625 
L 58.015625 17.1875 
L 47.609375 17.1875 
L 47.609375 0 
L 37.796875 0 
L 37.796875 17.1875 
L 4.890625 17.1875 
L 4.890625 26.703125 
z
" id="DejaVuSans-34"/>
     <path d="M 30.03125 -12.203125 
L 26.421875 6.5 
L 6.15625 -20.84375 
L -4.4375 -20.84375 
L 24.265625 17.828125 
L 19.828125 40.828125 
Q 18.65625 46.96875 11.140625 46.96875 
L 8.734375 46.96875 
L 10.203125 54.6875 
L 13.625 54.59375 
Q 26.171875 54.25 27.734375 46.09375 
L 31.34375 27.390625 
L 51.609375 54.734375 
L 62.203125 54.734375 
L 33.5 16.0625 
L 37.9375 -6.9375 
Q 39.109375 -13.09375 46.625 -13.09375 
L 49.03125 -13.09375 
L 47.5625 -20.796875 
L 44.140625 -20.703125 
Q 31.59375 -20.359375 30.03125 -12.203125 
z
" id="DejaVuSans-Oblique-3c7"/>
     <path d="M 44.578125 46.390625 
Q 43.21875 47.125 41.453125 47.515625 
Q 39.703125 47.90625 37.703125 47.90625 
Q 30.515625 47.90625 25.140625 42.453125 
Q 19.78125 37.015625 18.015625 27.875 
L 12.5 0 
L 3.515625 0 
L 14.203125 54.6875 
L 23.1875 54.6875 
L 21.484375 46.1875 
Q 25.046875 50.921875 30 53.453125 
Q 34.96875 56 40.578125 56 
Q 42.046875 56 43.453125 55.828125 
Q 44.875 55.671875 46.296875 55.28125 
z
" id="DejaVuSans-Oblique-72"/>
     <path d="M 19.671875 64.796875 
L 19.671875 8.109375 
L 31.59375 8.109375 
Q 46.6875 8.109375 53.6875 14.9375 
Q 60.6875 21.78125 60.6875 36.53125 
Q 60.6875 51.171875 53.6875 57.984375 
Q 46.6875 64.796875 31.59375 64.796875 
z
M 9.8125 72.90625 
L 30.078125 72.90625 
Q 51.265625 72.90625 61.171875 64.09375 
Q 71.09375 55.28125 71.09375 36.53125 
Q 71.09375 17.671875 61.125 8.828125 
Q 51.171875 0 30.078125 0 
L 9.8125 0 
z
" id="DejaVuSans-44"/>
     <path d="M 39.40625 66.21875 
Q 28.65625 66.21875 22.328125 58.203125 
Q 16.015625 50.203125 16.015625 36.375 
Q 16.015625 22.609375 22.328125 14.59375 
Q 28.65625 6.59375 39.40625 6.59375 
Q 50.140625 6.59375 56.421875 14.59375 
Q 62.703125 22.609375 62.703125 36.375 
Q 62.703125 50.203125 56.421875 58.203125 
Q 50.140625 66.21875 39.40625 66.21875 
z
M 39.40625 74.21875 
Q 54.734375 74.21875 63.90625 63.9375 
Q 73.09375 53.65625 73.09375 36.375 
Q 73.09375 19.140625 63.90625 8.859375 
Q 54.734375 -1.421875 39.40625 -1.421875 
Q 24.03125 -1.421875 14.8125 8.828125 
Q 5.609375 19.09375 5.609375 36.375 
Q 5.609375 53.65625 14.8125 63.9375 
Q 24.03125 74.21875 39.40625 74.21875 
z
" id="DejaVuSans-4f"/>
    </defs>
    <g transform="translate(69.12 38.508)scale(0.1 -0.1)">
     <use transform="translate(0 0.765625)" xlink:href="#DejaVuSans-46"/>
     <use transform="translate(57.519531 0.765625)" xlink:href="#DejaVuSans-69"/>
     <use transform="translate(85.302734 0.765625)" xlink:href="#DejaVuSans-74"/>
     <use transform="translate(124.511719 0.765625)" xlink:href="#DejaVuSans-3a"/>
     <use transform="translate(158.203125 0.765625)" xlink:href="#DejaVuSans-20"/>
     <use transform="translate(189.990234 0.765625)" xlink:href="#DejaVuSans-63"/>
     <use transform="translate(244.970703 0.765625)" xlink:href="#DejaVuSans-3d"/>
     <use transform="translate(328.759766 0.765625)" xlink:href="#DejaVuSans-30"/>
     <use transform="translate(392.382812 0.765625)" xlink:href="#DejaVuSans-2e"/>
     <use transform="translate(424.169922 0.765625)" xlink:href="#DejaVuSans-30"/>
     <use transform="translate(487.792969 0.765625)" xlink:href="#DejaVuSans-31"/>
     <use transform="translate(551.416016 0.765625)" xlink:href="#DejaVuSans-b1"/>
     <use transform="translate(635.205078 0.765625)" xlink:href="#DejaVuSans-30"/>
     <use transform="translate(698.828125 0.765625)" xlink:href="#DejaVuSans-2e"/>
     <use transform="translate(730.615234 0.765625)" xlink:href="#DejaVuSans-30"/>
     <use transform="translate(794.238281 0.765625)" xlink:href="#DejaVuSans-30"/>
     <use transform="translate(857.861328 0.765625)" xlink:href="#DejaVuSans-31"/>
     <use transform="translate(921.484375 0.765625)" xlink:href="#DejaVuSans-32"/>
     <use transform="translate(985.107422 0.765625)" xlink:href="#DejaVuSans-2c"/>
     <use transform="translate(1016.894531 0.765625)" xlink:href="#DejaVuSans-20"/>
     <use transform="translate(1048.681641 0.765625)" xlink:href="#DejaVuSans-64"/>
     <use transform="translate(1112.158203 0.765625)" xlink:href="#DejaVuSans-3d"/>
     <use transform="translate(1195.947266 0.765625)" xlink:href="#DejaVuSans-33"/>
     <use transform="translate(1259.570312 0.765625)" xlink:href="#DejaVuSans-30"/>
     <use transform="translate(1323.193359 0.765625)" xlink:href="#DejaVuSans-31"/>
     <use transform="translate(1386.816406 0.765625)" xlink:href="#DejaVuSans-38"/>
     <use transform="translate(1450.439453 0.765625)" xlink:href="#DejaVuSans-2e"/>
     <use transform="translate(1482.226562 0.765625)" xlink:href="#DejaVuSans-30"/>
     <use transform="translate(1545.849609 0.765625)" xlink:href="#DejaVuSans-b1"/>
     <use transform="translate(1629.638672 0.765625)" xlink:href="#DejaVuSans-34"/>
     <use transform="translate(1693.261719 0.765625)" xlink:href="#DejaVuSans-33"/>
     <use transform="translate(1756.884766 0.765625)" xlink:href="#DejaVuSans-2e"/>
     <use transform="translate(1788.671875 0.765625)" xlink:href="#DejaVuSans-30"/>
     <use transform="translate(1852.294922 0.765625)" xlink:href="#DejaVuSans-2c"/>
     <use transform="translate(1884.082031 0.765625)" xlink:href="#DejaVuSans-20"/>
     <use transform="translate(1915.869141 0.765625)" xlink:href="#DejaVuSans-Oblique-3c7"/>
     <use transform="translate(1979.521536 39.046875)scale(0.7)" xlink:href="#DejaVuSans-32"/>
     <use transform="translate(1975.048828 -26.578125)scale(0.7)" xlink:href="#DejaVuSans-Oblique-72"/>
     <use transform="translate(2026.792044 0.765625)" xlink:href="#DejaVuSans-3d"/>
     <use transform="translate(2110.581107 0.765625)" xlink:href="#DejaVuSans-31"/>
     <use transform="translate(2174.204154 0.765625)" xlink:href="#DejaVuSans-2e"/>
     <use transform="translate(2205.991263 0.765625)" xlink:href="#DejaVuSans-31"/>
     <use transform="translate(2269.61431 0.765625)" xlink:href="#DejaVuSans-34"/>
     <use transform="translate(2333.237357 0.765625)" xlink:href="#DejaVuSans-20"/>
     <use transform="translate(2365.024466 0.765625)" xlink:href="#DejaVuSans-28"/>
     <use transform="translate(2404.038138 0.765625)" xlink:href="#DejaVuSans-34"/>
     <use transform="translate(2467.661185 0.765625)" xlink:href="#DejaVuSans-38"/>
     <use transform="translate(2531.284232 0.765625)" xlink:href="#DejaVuSans-20"/>
     <use transform="translate(2563.071341 0.765625)" xlink:href="#DejaVuSans-44"/>
     <use transform="translate(2640.073294 0.765625)" xlink:href="#DejaVuSans-4f"/>
     <use transform="translate(2718.784232 0.765625)" xlink:href="#DejaVuSans-46"/>
     <use transform="translate(2776.303763 0.765625)" xlink:href="#DejaVuSans-29"/>
    </g>
   </g>
  </g>
  <g id="axes_2">
   <g id="patch_7">
    <path d="M 69.12 311.04 
L 414.72 311.04 
L 414.72 103.68 
L 69.12 103.68 
z
" style="fill:#ffffff;"/>
   </g>
   <g id="matplotlib.axis_3">
    <g id="xtick_7">
     <g id="line2d_11">
      <g>
       <use style="stroke:#000000;stroke-width:0.8;" x="74.385683" xlink:href="#med277d0f14" y="311.04"/>
      </g>
     </g>
     <g id="text_5">
      <!-- 350 -->
      <g transform="translate(60.070058 329.437656)scale(0.15 -0.15)">
       <use xlink:href="#DejaVuSans-33"/>
       <use x="63.623047" xlink:href="#DejaVuSans-35"/>
       <use x="127.246094" xlink:href="#DejaVuSans-30"/>
      </g>
     </g>
    </g>
    <g id="xtick_8">
     <g id="line2d_12">
      <g>
       <use style="stroke:#000000;stroke-width:0.8;" x="139.896819" xlink:href="#med277d0f14" y="311.04"/>
      </g>
     </g>
     <g id="text_6">
      <!-- 355 -->
      <g transform="translate(125.581194 329.437656)scale(0.15 -0.15)">
       <use xlink:href="#DejaVuSans-33"/>
       <use x="63.623047" xlink:href="#DejaVuSans-35"/>
       <use x="127.246094" xlink:href="#DejaVuSans-35"/>
      </g>
     </g>
    </g>
    <g id="xtick_9">
     <g id="line2d_13">
      <g>
       <use style="stroke:#000000;stroke-width:0.8;" x="205.407954" xlink:href="#med277d0f14" y="311.04"/>
      </g>
     </g>
     <g id="text_7">
      <!-- 360 -->
      <defs>
       <path d="M 33.015625 40.375 
Q 26.375 40.375 22.484375 35.828125 
Q 18.609375 31.296875 18.609375 23.390625 
Q 18.609375 15.53125 22.484375 10.953125 
Q 26.375 6.390625 33.015625 6.390625 
Q 39.65625 6.390625 43.53125 10.953125 
Q 47.40625 15.53125 47.40625 23.390625 
Q 47.40625 31.296875 43.53125 35.828125 
Q 39.65625 40.375 33.015625 40.375 
z
M 52.59375 71.296875 
L 52.59375 62.3125 
Q 48.875 64.0625 45.09375 64.984375 
Q 41.3125 65.921875 37.59375 65.921875 
Q 27.828125 65.921875 22.671875 59.328125 
Q 17.53125 52.734375 16.796875 39.40625 
Q 19.671875 43.65625 24.015625 45.921875 
Q 28.375 48.1875 33.59375 48.1875 
Q 44.578125 48.1875 50.953125 41.515625 
Q 57.328125 34.859375 57.328125 23.390625 
Q 57.328125 12.15625 50.6875 5.359375 
Q 44.046875 -1.421875 33.015625 -1.421875 
Q 20.359375 -1.421875 13.671875 8.265625 
Q 6.984375 17.96875 6.984375 36.375 
Q 6.984375 53.65625 15.1875 63.9375 
Q 23.390625 74.21875 37.203125 74.21875 
Q 40.921875 74.21875 44.703125 73.484375 
Q 48.484375 72.75 52.59375 71.296875 
z
" id="DejaVuSans-36"/>
      </defs>
      <g transform="translate(191.092329 329.437656)scale(0.15 -0.15)">
       <use xlink:href="#DejaVuSans-33"/>
       <use x="63.623047" xlink:href="#DejaVuSans-36"/>
       <use x="127.246094" xlink:href="#DejaVuSans-30"/>
      </g>
     </g>
    </g>
    <g id="xtick_10">
     <g id="line2d_14">
      <g>
       <use style="stroke:#000000;stroke-width:0.8;" x="270.91909" xlink:href="#med277d0f14" y="311.04"/>
      </g>
     </g>
     <g id="text_8">
      <!-- 365 -->
      <g transform="translate(256.603465 329.437656)scale(0.15 -0.15)">
       <use xlink:href="#DejaVuSans-33"/>
       <use x="63.623047" xlink:href="#DejaVuSans-36"/>
       <use x="127.246094" xlink:href="#DejaVuSans-35"/>
      </g>
     </g>
    </g>
    <g id="xtick_11">
     <g id="line2d_15">
      <g>
       <use style="stroke:#000000;stroke-width:0.8;" x="336.430225" xlink:href="#med277d0f14" y="311.04"/>
      </g>
     </g>
     <g id="text_9">
      <!-- 370 -->
      <defs>
       <path d="M 8.203125 72.90625 
L 55.078125 72.90625 
L 55.078125 68.703125 
L 28.609375 0 
L 18.3125 0 
L 43.21875 64.59375 
L 8.203125 64.59375 
z
" id="DejaVuSans-37"/>
      </defs>
      <g transform="translate(322.1146 329.437656)scale(0.15 -0.15)">
       <use xlink:href="#DejaVuSans-33"/>
       <use x="63.623047" xlink:href="#DejaVuSans-37"/>
       <use x="127.246094" xlink:href="#DejaVuSans-30"/>
      </g>
     </g>
    </g>
    <g id="xtick_12">
     <g id="line2d_16">
      <g>
       <use style="stroke:#000000;stroke-width:0.8;" x="401.941361" xlink:href="#med277d0f14" y="311.04"/>
      </g>
     </g>
     <g id="text_10">
      <!-- 375 -->
      <g transform="translate(387.625736 329.437656)scale(0.15 -0.15)">
       <use xlink:href="#DejaVuSans-33"/>
       <use x="63.623047" xlink:href="#DejaVuSans-37"/>
       <use x="127.246094" xlink:href="#DejaVuSans-35"/>
      </g>
     </g>
    </g>
    <g id="text_11">
     <!-- Temperature [K] -->
     <defs>
      <path d="M -0.296875 72.90625 
L 61.375 72.90625 
L 61.375 64.59375 
L 35.5 64.59375 
L 35.5 0 
L 25.59375 0 
L 25.59375 64.59375 
L -0.296875 64.59375 
z
" id="DejaVuSans-54"/>
      <path d="M 52 44.1875 
Q 55.375 50.25 60.0625 53.125 
Q 64.75 56 71.09375 56 
Q 79.640625 56 84.28125 50.015625 
Q 88.921875 44.046875 88.921875 33.015625 
L 88.921875 0 
L 79.890625 0 
L 79.890625 32.71875 
Q 79.890625 40.578125 77.09375 44.375 
Q 74.3125 48.1875 68.609375 48.1875 
Q 61.625 48.1875 57.5625 43.546875 
Q 53.515625 38.921875 53.515625 30.90625 
L 53.515625 0 
L 44.484375 0 
L 44.484375 32.71875 
Q 44.484375 40.625 41.703125 44.40625 
Q 38.921875 48.1875 33.109375 48.1875 
Q 26.21875 48.1875 22.15625 43.53125 
Q 18.109375 38.875 18.109375 30.90625 
L 18.109375 0 
L 9.078125 0 
L 9.078125 54.6875 
L 18.109375 54.6875 
L 18.109375 46.1875 
Q 21.1875 51.21875 25.484375 53.609375 
Q 29.78125 56 35.6875 56 
Q 41.65625 56 45.828125 52.96875 
Q 50 49.953125 52 44.1875 
z
" id="DejaVuSans-6d"/>
      <path d="M 41.109375 46.296875 
Q 39.59375 47.171875 37.8125 47.578125 
Q 36.03125 48 33.890625 48 
Q 26.265625 48 22.1875 43.046875 
Q 18.109375 38.09375 18.109375 28.8125 
L 18.109375 0 
L 9.078125 0 
L 9.078125 54.6875 
L 18.109375 54.6875 
L 18.109375 46.1875 
Q 20.953125 51.171875 25.484375 53.578125 
Q 30.03125 56 36.53125 56 
Q 37.453125 56 38.578125 55.875 
Q 39.703125 55.765625 41.0625 55.515625 
z
" id="DejaVuSans-72"/>
      <path d="M 8.59375 75.984375 
L 29.296875 75.984375 
L 29.296875 69 
L 17.578125 69 
L 17.578125 -6.203125 
L 29.296875 -6.203125 
L 29.296875 -13.1875 
L 8.59375 -13.1875 
z
" id="DejaVuSans-5b"/>
      <path d="M 9.8125 72.90625 
L 19.671875 72.90625 
L 19.671875 42.09375 
L 52.390625 72.90625 
L 65.09375 72.90625 
L 28.90625 38.921875 
L 67.671875 0 
L 54.6875 0 
L 19.671875 35.109375 
L 19.671875 0 
L 9.8125 0 
z
" id="DejaVuSans-4b"/>
      <path d="M 30.421875 75.984375 
L 30.421875 -13.1875 
L 9.71875 -13.1875 
L 9.71875 -6.203125 
L 21.390625 -6.203125 
L 21.390625 69 
L 9.71875 69 
L 9.71875 75.984375 
z
" id="DejaVuSans-5d"/>
     </defs>
     <g transform="translate(179.839922 347.954844)scale(0.15 -0.15)">
      <use xlink:href="#DejaVuSans-54"/>
      <use x="60.818359" xlink:href="#DejaVuSans-65"/>
      <use x="122.341797" xlink:href="#DejaVuSans-6d"/>
      <use x="219.753906" xlink:href="#DejaVuSans-70"/>
      <use x="283.230469" xlink:href="#DejaVuSans-65"/>
      <use x="344.753906" xlink:href="#DejaVuSans-72"/>
      <use x="385.867188" xlink:href="#DejaVuSans-61"/>
      <use x="447.146484" xlink:href="#DejaVuSans-74"/>
      <use x="486.355469" xlink:href="#DejaVuSans-75"/>
      <use x="549.734375" xlink:href="#DejaVuSans-72"/>
      <use x="590.816406" xlink:href="#DejaVuSans-65"/>
      <use x="652.339844" xlink:href="#DejaVuSans-20"/>
      <use x="684.126953" xlink:href="#DejaVuSans-5b"/>
      <use x="723.140625" xlink:href="#DejaVuSans-4b"/>
      <use x="788.716797" xlink:href="#DejaVuSans-5d"/>
     </g>
    </g>
   </g>
   <g id="matplotlib.axis_4">
    <g id="ytick_3">
     <g id="line2d_17">
      <g>
       <use style="stroke:#000000;stroke-width:0.8;" x="69.12" xlink:href="#m863de28632" y="306.969996"/>
      </g>
     </g>
     <g id="text_12">
      <!-- 30 -->
      <g transform="translate(43.0325 312.668824)scale(0.15 -0.15)">
       <use xlink:href="#DejaVuSans-33"/>
       <use x="63.623047" xlink:href="#DejaVuSans-30"/>
      </g>
     </g>
    </g>
    <g id="ytick_4">
     <g id="line2d_18">
      <g>
       <use style="stroke:#000000;stroke-width:0.8;" x="69.12" xlink:href="#m863de28632" y="263.587756"/>
      </g>
     </g>
     <g id="text_13">
      <!-- 35 -->
      <g transform="translate(43.0325 269.286585)scale(0.15 -0.15)">
       <use xlink:href="#DejaVuSans-33"/>
       <use x="63.623047" xlink:href="#DejaVuSans-35"/>
      </g>
     </g>
    </g>
    <g id="ytick_5">
     <g id="line2d_19">
      <g>
       <use style="stroke:#000000;stroke-width:0.8;" x="69.12" xlink:href="#m863de28632" y="220.205517"/>
      </g>
     </g>
     <g id="text_14">
      <!-- 40 -->
      <g transform="translate(43.0325 225.904345)scale(0.15 -0.15)">
       <use xlink:href="#DejaVuSans-34"/>
       <use x="63.623047" xlink:href="#DejaVuSans-30"/>
      </g>
     </g>
    </g>
    <g id="ytick_6">
     <g id="line2d_20">
      <g>
       <use style="stroke:#000000;stroke-width:0.8;" x="69.12" xlink:href="#m863de28632" y="176.823277"/>
      </g>
     </g>
     <g id="text_15">
      <!-- 45 -->
      <g transform="translate(43.0325 182.522106)scale(0.15 -0.15)">
       <use xlink:href="#DejaVuSans-34"/>
       <use x="63.623047" xlink:href="#DejaVuSans-35"/>
      </g>
     </g>
    </g>
    <g id="ytick_7">
     <g id="line2d_21">
      <g>
       <use style="stroke:#000000;stroke-width:0.8;" x="69.12" xlink:href="#m863de28632" y="133.441038"/>
      </g>
     </g>
     <g id="text_16">
      <!-- 50 -->
      <g transform="translate(43.0325 139.139866)scale(0.15 -0.15)">
       <use xlink:href="#DejaVuSans-35"/>
       <use x="63.623047" xlink:href="#DejaVuSans-30"/>
      </g>
     </g>
    </g>
    <g id="text_17">
     <!-- Resistivity [$\Omega$ mm] -->
     <defs>
      <path d="M 2.984375 54.6875 
L 12.5 54.6875 
L 29.59375 8.796875 
L 46.6875 54.6875 
L 56.203125 54.6875 
L 35.6875 0 
L 23.484375 0 
z
" id="DejaVuSans-76"/>
      <path d="M 72.609375 8.6875 
L 72.609375 0 
L 43.3125 0 
L 43.3125 8.6875 
Q 51.953125 13.421875 56.78125 21.53125 
Q 61.625 29.640625 61.625 39.5 
Q 61.625 51.21875 55.171875 58.296875 
Q 48.734375 65.375 38.1875 65.375 
Q 27.640625 65.375 21.171875 58.265625 
Q 14.703125 51.171875 14.703125 39.5 
Q 14.703125 29.640625 19.53125 21.53125 
Q 24.421875 13.421875 33.109375 8.6875 
L 33.109375 0 
L 3.8125 0 
L 3.8125 8.6875 
L 19.390625 8.6875 
Q 11.671875 15.484375 8.109375 22.75 
Q 4.59375 30.03125 4.59375 39.015625 
Q 4.59375 54.546875 13.96875 64.15625 
Q 23.296875 73.78125 38.1875 73.78125 
Q 52.984375 73.78125 62.40625 64.15625 
Q 71.78125 54.59375 71.78125 39.5 
Q 71.78125 30.03125 68.3125 22.796875 
Q 64.84375 15.578125 56.984375 8.6875 
z
" id="DejaVuSans-3a9"/>
     </defs>
     <g transform="translate(35.8825 277.035)rotate(-90)scale(0.15 -0.15)">
      <use transform="translate(0 0.015625)" xlink:href="#DejaVuSans-52"/>
      <use transform="translate(69.482422 0.015625)" xlink:href="#DejaVuSans-65"/>
      <use transform="translate(131.005859 0.015625)" xlink:href="#DejaVuSans-73"/>
      <use transform="translate(183.105469 0.015625)" xlink:href="#DejaVuSans-69"/>
      <use transform="translate(210.888672 0.015625)" xlink:href="#DejaVuSans-73"/>
      <use transform="translate(262.988281 0.015625)" xlink:href="#DejaVuSans-74"/>
      <use transform="translate(302.197266 0.015625)" xlink:href="#DejaVuSans-69"/>
      <use transform="translate(329.980469 0.015625)" xlink:href="#DejaVuSans-76"/>
      <use transform="translate(389.160156 0.015625)" xlink:href="#DejaVuSans-69"/>
      <use transform="translate(416.943359 0.015625)" xlink:href="#DejaVuSans-74"/>
      <use transform="translate(456.152344 0.015625)" xlink:href="#DejaVuSans-79"/>
      <use transform="translate(515.332031 0.015625)" xlink:href="#DejaVuSans-20"/>
      <use transform="translate(547.119141 0.015625)" xlink:href="#DejaVuSans-5b"/>
      <use transform="translate(586.132812 0.015625)" xlink:href="#DejaVuSans-3a9"/>
      <use transform="translate(662.548828 0.015625)" xlink:href="#DejaVuSans-20"/>
      <use transform="translate(694.335938 0.015625)" xlink:href="#DejaVuSans-6d"/>
      <use transform="translate(791.748047 0.015625)" xlink:href="#DejaVuSans-6d"/>
      <use transform="translate(889.160156 0.015625)" xlink:href="#DejaVuSans-5d"/>
     </g>
    </g>
   </g>
   <g id="LineCollection_2">
    <path clip-path="url(#pdc41cd4cfd)" d="M 81.92 119.357806 
L 81.92 103.362194 
" style="fill:none;stroke:#0000ff;stroke-width:1.5;"/>
    <path clip-path="url(#pdc41cd4cfd)" d="M 87.107583 123.655635 
L 87.107583 107.813512 
" style="fill:none;stroke:#0000ff;stroke-width:1.5;"/>
    <path clip-path="url(#pdc41cd4cfd)" d="M 98.547057 127.734447 
L 98.547057 112.03798 
" style="fill:none;stroke:#0000ff;stroke-width:1.5;"/>
    <path clip-path="url(#pdc41cd4cfd)" d="M 109.667376 131.831014 
L 109.667376 116.280845 
" style="fill:none;stroke:#0000ff;stroke-width:1.5;"/>
    <path clip-path="url(#pdc41cd4cfd)" d="M 111.869956 136.127042 
L 111.869956 120.730297 
" style="fill:none;stroke:#0000ff;stroke-width:1.5;"/>
    <path clip-path="url(#pdc41cd4cfd)" d="M 124.493139 140.457817 
L 124.493139 125.215731 
" style="fill:none;stroke:#0000ff;stroke-width:1.5;"/>
    <path clip-path="url(#pdc41cd4cfd)" d="M 132.778741 144.566482 
L 132.778741 129.471123 
" style="fill:none;stroke:#0000ff;stroke-width:1.5;"/>
    <path clip-path="url(#pdc41cd4cfd)" d="M 134.050284 148.807698 
L 134.050284 133.863789 
" style="fill:none;stroke:#0000ff;stroke-width:1.5;"/>
    <path clip-path="url(#pdc41cd4cfd)" d="M 149.36922 152.795651 
L 149.36922 137.994169 
" style="fill:none;stroke:#0000ff;stroke-width:1.5;"/>
    <path clip-path="url(#pdc41cd4cfd)" d="M 152.657842 156.510275 
L 152.657842 141.84146 
" style="fill:none;stroke:#0000ff;stroke-width:1.5;"/>
    <path clip-path="url(#pdc41cd4cfd)" d="M 164.762111 160.244978 
L 164.762111 145.70954 
" style="fill:none;stroke:#0000ff;stroke-width:1.5;"/>
    <path clip-path="url(#pdc41cd4cfd)" d="M 166.734612 163.863612 
L 166.734612 149.457396 
" style="fill:none;stroke:#0000ff;stroke-width:1.5;"/>
    <path clip-path="url(#pdc41cd4cfd)" d="M 169.037702 167.144824 
L 169.037702 152.855797 
" style="fill:none;stroke:#0000ff;stroke-width:1.5;"/>
    <path clip-path="url(#pdc41cd4cfd)" d="M 179.349565 170.662314 
L 179.349565 156.498892 
" style="fill:none;stroke:#0000ff;stroke-width:1.5;"/>
    <path clip-path="url(#pdc41cd4cfd)" d="M 183.086338 174.280686 
L 183.086338 160.246485 
" style="fill:none;stroke:#0000ff;stroke-width:1.5;"/>
    <path clip-path="url(#pdc41cd4cfd)" d="M 189.894417 178.475837 
L 189.894417 164.591432 
" style="fill:none;stroke:#0000ff;stroke-width:1.5;"/>
    <path clip-path="url(#pdc41cd4cfd)" d="M 204.007928 183.542963 
L 204.007928 169.839487 
" style="fill:none;stroke:#0000ff;stroke-width:1.5;"/>
    <path clip-path="url(#pdc41cd4cfd)" d="M 207.889765 188.658462 
L 207.889765 175.137668 
" style="fill:none;stroke:#0000ff;stroke-width:1.5;"/>
    <path clip-path="url(#pdc41cd4cfd)" d="M 214.18941 194.187295 
L 214.18941 180.863951 
" style="fill:none;stroke:#0000ff;stroke-width:1.5;"/>
    <path clip-path="url(#pdc41cd4cfd)" d="M 216.089521 199.683446 
L 216.089521 186.556375 
" style="fill:none;stroke:#0000ff;stroke-width:1.5;"/>
    <path clip-path="url(#pdc41cd4cfd)" d="M 238.851788 205.230047 
L 238.851788 192.301041 
" style="fill:none;stroke:#0000ff;stroke-width:1.5;"/>
    <path clip-path="url(#pdc41cd4cfd)" d="M 244.668647 211.019588 
L 244.668647 198.297359 
" style="fill:none;stroke:#0000ff;stroke-width:1.5;"/>
    <path clip-path="url(#pdc41cd4cfd)" d="M 251.208972 216.042442 
L 251.208972 203.49957 
" style="fill:none;stroke:#0000ff;stroke-width:1.5;"/>
    <path clip-path="url(#pdc41cd4cfd)" d="M 262.522305 221.497929 
L 262.522305 209.149877 
" style="fill:none;stroke:#0000ff;stroke-width:1.5;"/>
    <path clip-path="url(#pdc41cd4cfd)" d="M 266.488277 227.051209 
L 266.488277 214.901487 
" style="fill:none;stroke:#0000ff;stroke-width:1.5;"/>
    <path clip-path="url(#pdc41cd4cfd)" d="M 274.825526 232.131441 
L 274.825526 220.163156 
" style="fill:none;stroke:#0000ff;stroke-width:1.5;"/>
    <path clip-path="url(#pdc41cd4cfd)" d="M 284.854578 236.947874 
L 284.854578 225.151594 
" style="fill:none;stroke:#0000ff;stroke-width:1.5;"/>
    <path clip-path="url(#pdc41cd4cfd)" d="M 292.235173 241.870091 
L 292.235173 230.249583 
" style="fill:none;stroke:#0000ff;stroke-width:1.5;"/>
    <path clip-path="url(#pdc41cd4cfd)" d="M 300.755505 246.569149 
L 300.755505 235.116483 
" style="fill:none;stroke:#0000ff;stroke-width:1.5;"/>
    <path clip-path="url(#pdc41cd4cfd)" d="M 305.040291 250.582325 
L 305.040291 239.272985 
" style="fill:none;stroke:#0000ff;stroke-width:1.5;"/>
    <path clip-path="url(#pdc41cd4cfd)" d="M 311.879114 254.313683 
L 311.879114 243.137599 
" style="fill:none;stroke:#0000ff;stroke-width:1.5;"/>
    <path clip-path="url(#pdc41cd4cfd)" d="M 319.360142 257.962163 
L 319.360142 246.916384 
" style="fill:none;stroke:#0000ff;stroke-width:1.5;"/>
    <path clip-path="url(#pdc41cd4cfd)" d="M 320.007317 261.231024 
L 320.007317 250.301988 
" style="fill:none;stroke:#0000ff;stroke-width:1.5;"/>
    <path clip-path="url(#pdc41cd4cfd)" d="M 327.52392 264.386128 
L 327.52392 253.569771 
" style="fill:none;stroke:#0000ff;stroke-width:1.5;"/>
    <path clip-path="url(#pdc41cd4cfd)" d="M 334.735323 267.576755 
L 334.735323 256.874334 
" style="fill:none;stroke:#0000ff;stroke-width:1.5;"/>
    <path clip-path="url(#pdc41cd4cfd)" d="M 338.310142 270.706122 
L 338.310142 260.115461 
" style="fill:none;stroke:#0000ff;stroke-width:1.5;"/>
    <path clip-path="url(#pdc41cd4cfd)" d="M 340.504611 273.657646 
L 340.504611 263.172394 
" style="fill:none;stroke:#0000ff;stroke-width:1.5;"/>
    <path clip-path="url(#pdc41cd4cfd)" d="M 344.273581 276.211787 
L 344.273581 265.817757 
" style="fill:none;stroke:#0000ff;stroke-width:1.5;"/>
    <path clip-path="url(#pdc41cd4cfd)" d="M 351.959614 279.001173 
L 351.959614 268.70675 
" style="fill:none;stroke:#0000ff;stroke-width:1.5;"/>
    <path clip-path="url(#pdc41cd4cfd)" d="M 353.405201 281.676805 
L 353.405201 271.47792 
" style="fill:none;stroke:#0000ff;stroke-width:1.5;"/>
    <path clip-path="url(#pdc41cd4cfd)" d="M 373.340811 284.527952 
L 373.340811 274.430896 
" style="fill:none;stroke:#0000ff;stroke-width:1.5;"/>
    <path clip-path="url(#pdc41cd4cfd)" d="M 368.328566 287.590409 
L 368.328566 277.60271 
" style="fill:none;stroke:#0000ff;stroke-width:1.5;"/>
    <path clip-path="url(#pdc41cd4cfd)" d="M 370.276591 290.618635 
L 370.276591 280.739072 
" style="fill:none;stroke:#0000ff;stroke-width:1.5;"/>
    <path clip-path="url(#pdc41cd4cfd)" d="M 376.913596 293.791237 
L 376.913596 284.024985 
" style="fill:none;stroke:#0000ff;stroke-width:1.5;"/>
    <path clip-path="url(#pdc41cd4cfd)" d="M 380.299388 296.565429 
L 380.299388 286.89826 
" style="fill:none;stroke:#0000ff;stroke-width:1.5;"/>
    <path clip-path="url(#pdc41cd4cfd)" d="M 383.236231 299.16693 
L 383.236231 289.592668 
" style="fill:none;stroke:#0000ff;stroke-width:1.5;"/>
    <path clip-path="url(#pdc41cd4cfd)" d="M 391.271112 301.406825 
L 391.271112 291.912556 
" style="fill:none;stroke:#0000ff;stroke-width:1.5;"/>
    <path clip-path="url(#pdc41cd4cfd)" d="M 392.235061 303.711583 
L 392.235061 294.299613 
" style="fill:none;stroke:#0000ff;stroke-width:1.5;"/>
    <path clip-path="url(#pdc41cd4cfd)" d="M 398.879363 305.990338 
L 398.879363 296.659755 
" style="fill:none;stroke:#0000ff;stroke-width:1.5;"/>
    <path clip-path="url(#pdc41cd4cfd)" d="M 401.92 307.98959 
L 401.92 298.73041 
" style="fill:none;stroke:#0000ff;stroke-width:1.5;"/>
   </g>
   <g id="line2d_22">
    <path clip-path="url(#pdc41cd4cfd)" d="M 0 0 
" style="fill:none;stroke:#404040;stroke-linecap:square;stroke-width:1.5;"/>
   </g>
   <g id="line2d_23">
    <path clip-path="url(#pdc41cd4cfd)" d="M 81.92 92.285069 
L 94.092172 102.970521 
L 106.264344 113.36114 
L 118.756837 123.728568 
L 131.249329 133.805302 
L 143.741822 143.600847 
L 156.554635 153.365054 
L 169.367447 162.852602 
L 182.500581 172.299793 
L 195.633714 181.475411 
L 209.087167 190.602763 
L 222.540621 199.46412 
L 236.314394 208.270347 
L 250.088168 216.816595 
L 264.182262 225.301832 
L 278.596677 233.717688 
L 293.011091 241.877776 
L 307.745826 249.96431 
L 322.800881 257.970102 
L 337.855936 265.726057 
L 353.231311 273.398652 
L 368.927007 280.981805 
L 384.943023 288.469872 
L 401.279359 295.857646 
L 401.92 296.142352 
L 401.92 296.142352 
" style="fill:none;stroke:#ff0000;stroke-linecap:square;stroke-width:1.5;"/>
   </g>
   <g id="line2d_24">
    <g clip-path="url(#pdc41cd4cfd)">
     <use style="fill:#0000ff;stroke:#0000ff;" x="81.92" xlink:href="#md3dbc29506" y="111.36"/>
     <use style="fill:#0000ff;stroke:#0000ff;" x="87.107583" xlink:href="#md3dbc29506" y="115.734573"/>
     <use style="fill:#0000ff;stroke:#0000ff;" x="98.547057" xlink:href="#md3dbc29506" y="119.886214"/>
     <use style="fill:#0000ff;stroke:#0000ff;" x="109.667376" xlink:href="#md3dbc29506" y="124.05593"/>
     <use style="fill:#0000ff;stroke:#0000ff;" x="111.869956" xlink:href="#md3dbc29506" y="128.428669"/>
     <use style="fill:#0000ff;stroke:#0000ff;" x="124.493139" xlink:href="#md3dbc29506" y="132.836774"/>
     <use style="fill:#0000ff;stroke:#0000ff;" x="132.778741" xlink:href="#md3dbc29506" y="137.018803"/>
     <use style="fill:#0000ff;stroke:#0000ff;" x="134.050284" xlink:href="#md3dbc29506" y="141.335744"/>
     <use style="fill:#0000ff;stroke:#0000ff;" x="149.36922" xlink:href="#md3dbc29506" y="145.39491"/>
     <use style="fill:#0000ff;stroke:#0000ff;" x="152.657842" xlink:href="#md3dbc29506" y="149.175868"/>
     <use style="fill:#0000ff;stroke:#0000ff;" x="164.762111" xlink:href="#md3dbc29506" y="152.977259"/>
     <use style="fill:#0000ff;stroke:#0000ff;" x="166.734612" xlink:href="#md3dbc29506" y="156.660504"/>
     <use style="fill:#0000ff;stroke:#0000ff;" x="169.037702" xlink:href="#md3dbc29506" y="160.000311"/>
     <use style="fill:#0000ff;stroke:#0000ff;" x="179.349565" xlink:href="#md3dbc29506" y="163.580603"/>
     <use style="fill:#0000ff;stroke:#0000ff;" x="183.086338" xlink:href="#md3dbc29506" y="167.263586"/>
     <use style="fill:#0000ff;stroke:#0000ff;" x="189.894417" xlink:href="#md3dbc29506" y="171.533634"/>
     <use style="fill:#0000ff;stroke:#0000ff;" x="204.007928" xlink:href="#md3dbc29506" y="176.691225"/>
     <use style="fill:#0000ff;stroke:#0000ff;" x="207.889765" xlink:href="#md3dbc29506" y="181.898065"/>
     <use style="fill:#0000ff;stroke:#0000ff;" x="214.18941" xlink:href="#md3dbc29506" y="187.525623"/>
     <use style="fill:#0000ff;stroke:#0000ff;" x="216.089521" xlink:href="#md3dbc29506" y="193.119911"/>
     <use style="fill:#0000ff;stroke:#0000ff;" x="238.851788" xlink:href="#md3dbc29506" y="198.765544"/>
     <use style="fill:#0000ff;stroke:#0000ff;" x="244.668647" xlink:href="#md3dbc29506" y="204.658474"/>
     <use style="fill:#0000ff;stroke:#0000ff;" x="251.208972" xlink:href="#md3dbc29506" y="209.771006"/>
     <use style="fill:#0000ff;stroke:#0000ff;" x="262.522305" xlink:href="#md3dbc29506" y="215.323903"/>
     <use style="fill:#0000ff;stroke:#0000ff;" x="266.488277" xlink:href="#md3dbc29506" y="220.976348"/>
     <use style="fill:#0000ff;stroke:#0000ff;" x="274.825526" xlink:href="#md3dbc29506" y="226.147298"/>
     <use style="fill:#0000ff;stroke:#0000ff;" x="284.854578" xlink:href="#md3dbc29506" y="231.049734"/>
     <use style="fill:#0000ff;stroke:#0000ff;" x="292.235173" xlink:href="#md3dbc29506" y="236.059837"/>
     <use style="fill:#0000ff;stroke:#0000ff;" x="300.755505" xlink:href="#md3dbc29506" y="240.842816"/>
     <use style="fill:#0000ff;stroke:#0000ff;" x="305.040291" xlink:href="#md3dbc29506" y="244.927655"/>
     <use style="fill:#0000ff;stroke:#0000ff;" x="311.879114" xlink:href="#md3dbc29506" y="248.725641"/>
     <use style="fill:#0000ff;stroke:#0000ff;" x="319.360142" xlink:href="#md3dbc29506" y="252.439273"/>
     <use style="fill:#0000ff;stroke:#0000ff;" x="320.007317" xlink:href="#md3dbc29506" y="255.766506"/>
     <use style="fill:#0000ff;stroke:#0000ff;" x="327.52392" xlink:href="#md3dbc29506" y="258.97795"/>
     <use style="fill:#0000ff;stroke:#0000ff;" x="334.735323" xlink:href="#md3dbc29506" y="262.225544"/>
     <use style="fill:#0000ff;stroke:#0000ff;" x="338.310142" xlink:href="#md3dbc29506" y="265.410791"/>
     <use style="fill:#0000ff;stroke:#0000ff;" x="340.504611" xlink:href="#md3dbc29506" y="268.41502"/>
     <use style="fill:#0000ff;stroke:#0000ff;" x="344.273581" xlink:href="#md3dbc29506" y="271.014772"/>
     <use style="fill:#0000ff;stroke:#0000ff;" x="351.959614" xlink:href="#md3dbc29506" y="273.853962"/>
     <use style="fill:#0000ff;stroke:#0000ff;" x="353.405201" xlink:href="#md3dbc29506" y="276.577362"/>
     <use style="fill:#0000ff;stroke:#0000ff;" x="373.340811" xlink:href="#md3dbc29506" y="279.479424"/>
     <use style="fill:#0000ff;stroke:#0000ff;" x="368.328566" xlink:href="#md3dbc29506" y="282.59656"/>
     <use style="fill:#0000ff;stroke:#0000ff;" x="370.276591" xlink:href="#md3dbc29506" y="285.678854"/>
     <use style="fill:#0000ff;stroke:#0000ff;" x="376.913596" xlink:href="#md3dbc29506" y="288.908111"/>
     <use style="fill:#0000ff;stroke:#0000ff;" x="380.299388" xlink:href="#md3dbc29506" y="291.731845"/>
     <use style="fill:#0000ff;stroke:#0000ff;" x="383.236231" xlink:href="#md3dbc29506" y="294.379799"/>
     <use style="fill:#0000ff;stroke:#0000ff;" x="391.271112" xlink:href="#md3dbc29506" y="296.659691"/>
     <use style="fill:#0000ff;stroke:#0000ff;" x="392.235061" xlink:href="#md3dbc29506" y="299.005598"/>
     <use style="fill:#0000ff;stroke:#0000ff;" x="398.879363" xlink:href="#md3dbc29506" y="301.325047"/>
     <use style="fill:#0000ff;stroke:#0000ff;" x="401.92" xlink:href="#md3dbc29506" y="303.36"/>
    </g>
   </g>
   <g id="patch_8">
    <path d="M 69.12 311.04 
L 69.12 103.68 
" style="fill:none;stroke:#000000;stroke-linecap:square;stroke-linejoin:miter;stroke-width:0.8;"/>
   </g>
   <g id="patch_9">
    <path d="M 414.72 311.04 
L 414.72 103.68 
" style="fill:none;stroke:#000000;stroke-linecap:square;stroke-linejoin:miter;stroke-width:0.8;"/>
   </g>
   <g id="patch_10">
    <path d="M 69.12 311.04 
L 414.72 311.04 
" style="fill:none;stroke:#000000;stroke-linecap:square;stroke-linejoin:miter;stroke-width:0.8;"/>
   </g>
   <g id="patch_11">
    <path d="M 69.12 103.68 
L 414.72 103.68 
" style="fill:none;stroke:#000000;stroke-linecap:square;stroke-linejoin:miter;stroke-width:0.8;"/>
   </g>
  </g>
 </g>
 <defs>
  <clipPath id="pffa58c538e">
   <rect height="51.84" width="345.6" x="69.12" y="44.928"/>
  </clipPath>
  <clipPath id="pdc41cd4cfd">
   <rect height="207.36" width="345.6" x="69.12" y="103.68"/>
  </clipPath>
 </defs>
</svg>
